<svg width="38" height="38" viewBox="0 0 38 38" fill="none" xmlns="http://www.w3.org/2000/svg">
                      <g clip-path="url(#clip0_795_29925)">
                        <path d="M30.7526 26.1973C30.0895 27.7112 29.7724 28.3882 28.9208 29.726C27.731 31.5944 26.0511 33.9258 23.9743 33.9418C22.1269 33.9578 21.6501 32.6989 19.143 32.7195C16.6359 32.7321 16.1137 33.9647 14.2641 33.9453C12.1873 33.9258 10.5972 31.8253 9.40629 29.9604C6.07643 24.7292 5.72493 18.5981 7.78294 15.3358C9.23885 13.0227 11.543 11.6642 13.7064 11.6642C15.9097 11.6642 17.2946 12.9129 19.1164 12.9129C20.8839 12.9129 21.9606 11.6608 24.5087 11.6608C26.4359 11.6608 28.474 12.7437 29.9299 14.612C25.1663 17.3037 25.9402 24.3198 30.7526 26.1973ZM22.5749 9.5729C23.5019 8.346 24.2049 6.61483 23.9499 4.84937C22.4374 4.9557 20.6688 5.95164 19.6354 7.24144C18.6995 8.41575 17.9233 10.1606 18.226 11.8483C19.876 11.9032 21.5836 10.889 22.5749 9.5729Z" fill="#F4F4F7"></path>
                      </g>
                      <defs>
                        <clipPath id="clip0_795_29925">
                          <rect x="0.0410156" width="37.7172" height="37.7172" rx="18.8586" fill="white"></rect>
                        </clipPath>
                      </defs>
                    </svg>