<?xml version="1.0" encoding="UTF-8"?>
<svg xmlns="http://www.w3.org/2000/svg" width="100" height="101" viewBox="0 0 100 101" fill="none">
  <g clip-path="url(#clip0_154_1464)">
    <path d="M45.703 0C48.1248 0 50.5207 0 52.9425 0C53.1509 0.0520833 53.3853 0.130208 53.5936 0.15625C59.9217 0.520833 66.0936 1.79688 72.1352 3.69792C74.2707 4.375 74.5311 4.63542 74.5311 6.84896C74.5311 13.3594 74.5311 19.8698 74.5311 26.3802C74.5311 26.7448 74.5311 27.1354 74.5311 27.7083C74.9998 27.3958 75.2863 27.2135 75.5988 27.0313C78.0207 25.4167 80.4165 23.8281 82.8123 22.2135C83.5936 21.6927 84.3488 21.3542 85.2602 21.849C86.1717 22.3177 86.328 23.151 86.328 24.0885C86.328 26.8229 86.328 29.5573 86.328 32.2917C86.328 32.6302 86.354 32.9688 86.38 33.3854C88.7498 33.3854 91.0415 33.3854 93.3071 33.3854C95.5727 33.3854 96.1196 33.9323 96.1196 36.1979C96.1196 55.7292 96.1196 75.2604 96.1196 94.7656C96.1196 95.1823 96.1196 95.599 96.1196 96.1198C96.8488 96.1198 97.4998 96.0938 98.1509 96.1198C99.2186 96.1719 99.9998 96.9792 100.026 97.9948C100.052 99.0365 99.2707 99.8958 98.1769 100C97.9165 100.026 97.6561 100 97.3957 100C65.8332 100 34.2707 100 2.68213 100.026C1.48421 100.026 0.598796 99.6875 0.0258789 98.6458C0.0258789 98.2552 0.0258789 97.8646 0.0258789 97.474C0.833171 95.7031 2.49984 96.1719 3.93213 96.0677C3.93213 95.5208 3.93213 95.1042 3.93213 94.6875C3.93213 75.1042 3.93213 55.5208 3.93213 35.9115C3.93213 33.9583 4.55713 33.3594 6.51025 33.3594C8.56755 33.3594 10.5988 33.3594 12.6561 33.3594C12.9686 33.3594 13.2811 33.3333 13.7238 33.3073C13.7238 32.8906 13.7238 32.5521 13.7238 32.2135C13.7238 29.4792 13.7238 26.7448 13.7238 24.0104C13.7238 23.125 13.88 22.3177 14.7394 21.849C15.6248 21.3542 16.4061 21.6406 17.1873 22.1615C19.6873 23.8542 22.2134 25.5208 24.7394 27.1875C24.9478 27.3177 25.1561 27.4219 25.4946 27.6042C25.4946 27.0833 25.4946 26.6927 25.4946 26.3021C25.4946 19.6615 25.4946 13.0208 25.4946 6.38021C25.4946 4.94792 25.8332 4.34896 26.979 3.93229C31.4582 2.31771 36.0415 1.14583 40.7811 0.546875C42.4217 0.364583 44.0623 0.182292 45.703 0ZM70.5727 96.0417C70.5727 95.5729 70.5727 95.1823 70.5727 94.7917C70.5727 90.3646 70.5727 85.9375 70.5727 81.5104C70.5727 76.6927 70.5467 71.875 70.5988 67.0573C70.5988 66.3542 70.4165 65.9896 69.6873 65.8594C68.8019 65.6771 67.9425 65.3646 67.0571 65.1563C54.7394 61.9531 42.4998 61.849 30.3123 65.8073C29.5571 66.0417 29.4009 66.4063 29.4009 67.1094C29.4269 76.4063 29.4269 85.7292 29.4269 95.026C29.4269 95.3646 29.453 95.7031 29.479 96.0417C32.1092 96.0417 34.6352 96.0417 37.2134 96.0417C37.2134 88.8802 37.2134 81.7708 37.2134 74.5573C36.4321 74.5313 35.703 74.5313 34.9738 74.4531C34.0363 74.349 33.4113 73.5938 33.3592 72.6563C33.3332 71.7188 33.88 70.9115 34.7915 70.7031C35.2082 70.599 35.6248 70.599 36.0415 70.599C45.3384 70.599 54.6613 70.599 63.9582 70.599C64.1925 70.599 64.4269 70.599 64.6352 70.599C65.8592 70.7031 66.6144 71.4844 66.6144 72.5781C66.6144 73.6979 65.8332 74.4531 64.5832 74.5052C63.9842 74.5313 63.3592 74.5052 62.7602 74.5052C62.7602 81.7708 62.7602 88.8802 62.7602 96.0417C65.3644 96.0417 67.8905 96.0417 70.5727 96.0417ZM17.7082 27.2396C17.7082 50.3125 17.7082 73.1771 17.7082 96.0417C20.3123 96.0417 22.8384 96.0417 25.4946 96.0417C25.4946 95.599 25.4946 95.1823 25.4946 94.7656C25.4946 78.6198 25.4946 62.5 25.4946 46.3542C25.4946 42.0052 25.4946 37.6302 25.5207 33.2813C25.5207 32.6563 25.3384 32.2656 24.7915 31.9531C23.6196 31.25 22.4998 30.4427 21.38 29.6875C20.1821 28.8802 19.0103 28.099 17.7082 27.2396ZM82.3175 27.2135C79.8696 28.8542 77.578 30.3906 75.2602 31.901C74.7134 32.2656 74.505 32.6563 74.505 33.3073C74.5311 53.8802 74.5311 74.4271 74.5311 95C74.5311 95.3385 74.5571 95.6771 74.5832 96.0156C77.2134 96.0156 79.7394 96.0156 82.3436 96.0156C82.3175 73.125 82.3175 50.2865 82.3175 27.2135ZM7.9165 37.3177C7.9165 56.9531 7.9165 76.5104 7.9165 96.0417C9.86963 96.0417 11.7446 96.0417 13.6457 96.0417C13.6457 76.4583 13.6457 56.901 13.6457 37.3177C11.7186 37.3177 9.84359 37.3177 7.9165 37.3177ZM92.1352 37.3177C90.1561 37.3177 88.2811 37.3177 86.354 37.3177C86.354 56.901 86.354 76.4583 86.354 96.0156C88.3071 96.0156 90.2082 96.0156 92.1352 96.0156C92.1352 76.4323 92.1352 56.9271 92.1352 37.3177ZM29.4269 14.8958C43.1769 10.4948 56.8488 10.9635 70.5727 14.974C70.5727 12.6302 70.5207 10.4688 70.5988 8.33333C70.6248 7.52604 70.3644 7.21354 69.6092 7.00521C60.755 4.42708 51.7446 3.30729 42.5259 4.32292C38.2811 4.79167 34.1405 5.70313 30.078 7.08333C29.8175 7.16146 29.479 7.47396 29.453 7.68229C29.4009 10.026 29.4269 12.3958 29.4269 14.8958ZM70.5727 26.7448C70.5727 24.401 70.5467 22.2135 70.5988 20.0521C70.6248 19.2969 70.3384 18.9844 69.6352 18.776C64.7915 17.3958 59.8696 16.3802 54.8175 15.9635C46.38 15.2604 38.1509 16.1719 30.078 18.8021C29.5571 18.9844 29.4009 19.2448 29.4009 19.7917C29.4269 21.849 29.4009 23.8802 29.4269 25.9375C29.4269 26.1458 29.505 26.3542 29.5311 26.6406C43.229 22.2656 56.8228 22.7344 70.5727 26.7448ZM29.4269 61.9531C43.203 57.5521 56.8488 58.0208 70.5727 62.0313C70.5727 59.6875 70.5467 57.5 70.5988 55.3385C70.6248 54.6094 70.3905 54.2969 69.6613 54.0625C60.755 51.4583 51.7186 50.3385 42.4738 51.3802C38.229 51.849 34.0884 52.7604 30.0259 54.1406C29.7915 54.2188 29.453 54.5573 29.453 54.7656C29.4009 57.1094 29.4269 59.4531 29.4269 61.9531ZM29.4269 50.2083C43.229 45.8073 56.8488 46.276 70.5727 50.2865C70.5727 47.9167 70.5467 45.7031 70.5988 43.4896C70.6248 42.8125 70.3905 42.5521 69.7394 42.3438C64.2967 40.7292 58.7498 39.6875 53.0728 39.349C45.1821 38.8802 37.4998 39.8698 30.0259 42.3698C29.7915 42.4479 29.453 42.7865 29.453 42.9948C29.4009 45.3385 29.4269 47.6823 29.4269 50.2083ZM70.5727 38.5156C70.5727 36.1458 70.5467 33.9323 70.5988 31.6927C70.5988 31.0677 70.4165 30.7552 69.7915 30.625C66.2498 29.8438 62.7342 28.8542 59.1405 28.2813C49.9217 26.8229 40.8071 27.3698 31.8228 30.0521C29.4009 30.7813 29.4269 30.7813 29.4269 33.2552C29.4269 34.9219 29.4269 36.6146 29.4269 38.4375C43.203 34.0365 56.8488 34.5052 70.5727 38.5156ZM47.9686 96.0417C47.9686 88.8542 47.9686 81.7188 47.9686 74.5833C45.6769 74.5833 43.4634 74.5833 41.2498 74.5833C41.2498 81.7708 41.2498 88.8802 41.2498 96.0417C43.4894 96.0417 45.703 96.0417 47.9686 96.0417ZM52.0311 74.5573C52.0311 81.7708 52.0311 88.9063 52.0311 96.0156C54.3228 96.0156 56.5363 96.0156 58.7498 96.0156C58.7498 88.8281 58.7498 81.7188 58.7498 74.5573C56.5103 74.5573 54.2967 74.5573 52.0311 74.5573Z" fill="url(#paint0_linear_154_1464)"></path>
  </g>
  <defs>
    <linearGradient id="paint0_linear_154_1464" x1="50.0262" y1="0" x2="50.0262" y2="100.026" gradientUnits="userSpaceOnUse">
      <stop stop-color="#F49627"></stop>
      <stop offset="1" stop-color="#ED6D2B"></stop>
    </linearGradient>
    <clipPath id="clip0_154_1464">
      <rect width="100" height="100.026" fill="white"></rect>
    </clipPath>
  </defs>
</svg>
