<?xml version="1.0" encoding="UTF-8"?>
<svg xmlns="http://www.w3.org/2000/svg" width="100" height="100" viewBox="0 0 100 100" fill="none">
  <g clip-path="url(#clip0_154_1457)">
    <path d="M49.9464 100C34.8389 100 19.7045 100 4.59697 99.9732C3.68299 99.9732 2.71525 99.7581 1.90879 99.3279C0.537826 98.575 -0.0804536 97.2575 0.0270732 95.6979C0.1346 94.1383 0.91417 92.9014 2.39266 92.3368C3.17223 92.041 3.25288 91.6108 3.25288 90.9117C3.226 69.4005 3.25288 47.8893 3.226 26.3782C3.226 23.4742 3.89804 20.9466 6.15611 18.9837C6.37116 18.7955 6.4518 18.3384 6.4518 17.9888C6.47869 14.4395 6.4518 10.8633 6.47869 7.31392C6.47869 5.02836 7.68836 3.33435 9.81202 2.55457C18.7367 -0.806547 27.6884 -0.860325 36.6669 2.44702C39.1669 3.36124 40.3228 4.94769 40.3228 7.60969C40.3228 11.0246 40.2959 14.4664 40.3497 17.8813C40.3497 18.3384 40.5916 18.9031 40.9142 19.2257C42.1507 20.4895 43.0647 21.9146 43.3335 23.6624C43.441 24.254 43.7099 24.4422 44.2475 24.5228C51.4518 25.5984 58.6561 26.7008 65.8604 27.7764C73.226 28.8789 80.5916 30.0082 87.9572 31.1106C89.3819 31.3257 90.8066 31.5409 92.2314 31.756C95.2959 32.2669 96.7744 34.0146 96.7744 37.1606C96.7744 55.0418 96.7744 72.923 96.7744 90.8041C96.7744 91.5839 96.8819 92.041 97.7152 92.3637C99.355 93.009 100.242 94.8912 99.9464 96.5852C99.6238 98.4137 98.1453 99.8119 96.3174 99.9732C95.941 100 95.5916 100 95.2152 100C80.1077 100 65.0271 100 49.9464 100ZM80.6722 91.8797C85.0002 91.8797 89.2475 91.8797 93.5217 91.8797C93.5217 91.6108 93.5217 91.4226 93.5217 91.2074C93.5217 73.165 93.5217 55.1225 93.5217 37.08C93.5217 35.7086 93.1453 35.2246 91.7475 35.0095C87.5271 34.3373 83.3335 33.7189 79.1131 33.0735C69.597 31.6215 60.0808 30.1695 50.5378 28.7444C48.226 28.3949 45.9142 28.0453 43.6023 27.6957C43.6023 49.18 43.6023 70.5298 43.6023 91.8797C47.3658 91.8797 51.0755 91.8797 54.7851 91.8797C54.7851 84.3508 54.7851 76.9025 54.7851 69.3736C54.4088 69.3736 54.0862 69.4005 53.7636 69.3736C52.1507 69.2661 50.726 68.1636 50.2152 66.6578C49.3013 63.9689 51.2636 61.3338 54.2475 61.3338C63.2529 61.3338 72.2582 61.3338 81.2636 61.3338C81.3711 61.3338 81.4787 61.3338 81.5593 61.3338C83.6292 61.4145 85.269 62.974 85.4841 64.9907C85.6722 66.9805 84.4088 68.7821 82.4195 69.2661C81.8819 69.4005 81.3174 69.4005 80.6991 69.4812C80.6722 76.9025 80.6722 84.3508 80.6722 91.8797ZM37.097 17.1284C37.097 13.7404 37.097 10.5137 37.097 7.28703C37.097 6.45347 36.7206 5.8888 35.9142 5.59302C27.554 2.42013 19.1937 2.42013 10.8604 5.6468C10.3765 5.83502 9.75826 6.53414 9.73137 6.99125C9.62385 10.3255 9.67761 13.6866 9.67761 17.1284C18.8443 13.6597 27.9034 13.6597 37.097 17.1284ZM58.0916 91.8528C60.8335 91.8528 63.441 91.8528 66.0755 91.8528C66.0755 84.3239 66.0755 76.8756 66.0755 69.4005C63.3873 69.4005 60.7529 69.4005 58.0916 69.4005C58.0916 76.9294 58.0916 84.3776 58.0916 91.8528ZM69.4088 69.4005C69.4088 76.9563 69.4088 84.4314 69.4088 91.8528C72.1238 91.8528 74.7314 91.8528 77.3389 91.8528C77.3389 84.3239 77.3389 76.8756 77.3389 69.4005C74.7045 69.4005 72.097 69.4005 69.4088 69.4005ZM28.9787 66.7923C26.0217 65.9318 20.4303 65.9587 17.7959 66.846C17.7959 71.6323 17.7959 76.3916 17.7959 81.2316C21.5593 80.5056 25.2421 80.5594 28.9787 81.1779C28.9787 76.311 28.9787 71.5785 28.9787 66.7923ZM49.8658 96.7735C64.9195 96.7735 79.9733 96.7735 95.0271 96.7735C95.6991 96.7735 96.7475 97.0961 96.6937 95.9399C96.6669 94.8912 95.6722 95.187 95.0271 95.187C65.0002 95.187 34.9733 95.187 4.91955 95.187C4.65073 95.187 4.32815 95.0795 4.11309 95.2139C3.76363 95.429 3.49481 95.7517 3.19912 96.0475C3.49481 96.2895 3.76363 96.6121 4.11309 96.7735C4.35503 96.881 4.70449 96.8003 5.00019 96.8003C19.9733 96.7735 34.9195 96.7735 49.8658 96.7735ZM28.9787 18.2577C25.2152 17.5855 21.5056 17.5855 17.769 18.2577C17.769 22.5868 17.769 26.8353 17.769 31.1913C21.5324 30.4922 25.2421 30.5191 28.9787 31.1375C28.9787 26.7815 28.9787 22.5599 28.9787 18.2577ZM28.9787 47.2978C28.9787 42.9687 28.9787 38.7471 28.9787 34.4718C25.2152 33.692 21.5056 33.692 17.7959 34.4986C17.7959 38.8009 17.7959 43.0493 17.7959 47.3247C21.5324 46.6524 25.1884 46.6524 28.9787 47.2978ZM28.9787 63.4311C28.9787 59.102 28.9787 54.8805 28.9787 50.6051C25.2152 49.8253 21.5056 49.8253 17.7959 50.632C17.7959 54.9342 17.7959 59.1827 17.7959 63.458C21.5324 62.7589 25.1884 62.7858 28.9787 63.4311ZM32.2851 67.5989C32.2851 72.4658 32.2851 77.1983 32.2851 81.7425C35.0271 82.9794 37.6346 84.1625 40.2959 85.3725C40.2959 81.0165 40.2959 76.6336 40.269 72.2776C40.269 72.0356 40.1077 71.6861 39.9195 71.5247C37.6346 69.8307 35.1346 68.5132 32.2851 67.5989ZM14.4626 67.6527C11.7744 68.5132 9.46256 69.7769 7.25826 71.2558C6.66686 71.6592 6.39804 72.0356 6.42492 72.7885C6.47869 76.7412 6.4518 80.7207 6.4518 84.6734C6.4518 84.9692 6.47869 85.2381 6.47869 85.4263C9.13998 84.1894 11.7744 83.0063 14.4626 81.7694C14.4626 77.1983 14.4626 72.4927 14.4626 67.6527ZM14.4626 18.8493C12.7152 19.4946 11.1023 20.0324 9.5432 20.7046C7.47331 21.5651 6.4518 23.2053 6.4518 25.4371C6.4518 28.5562 6.4518 31.6753 6.4518 34.8213C6.4518 35.0633 6.50557 35.3053 6.50557 35.4129C9.16686 34.2029 11.7744 32.9929 14.4626 31.756C14.4626 27.642 14.4626 23.3935 14.4626 18.8493ZM32.2583 18.7955C32.2583 23.2053 32.2583 27.3193 32.2851 31.4064C32.2851 31.6753 32.6884 32.0249 32.9572 32.1593C34.7583 32.966 36.5862 33.692 38.3873 34.4986C39.0056 34.7675 39.597 35.1709 40.269 35.5473C40.269 31.8366 40.3228 28.2873 40.2421 24.738C40.1884 23.1515 39.355 21.7802 37.9034 21.0811C36.1561 20.2206 34.2744 19.6022 32.2583 18.7955ZM40.3228 51.4925C40.3228 47.6742 40.3496 43.856 40.2959 40.0109C40.2959 39.6882 40.0002 39.258 39.7045 39.0966C38.0378 38.1018 36.3443 37.1338 34.6238 36.2195C33.898 35.8431 33.1185 35.628 32.2851 35.3053C32.2851 39.6613 32.2851 43.856 32.2851 47.8624C35.0002 49.0993 37.6077 50.2825 40.3228 51.4925ZM40.3228 67.6258C40.3228 63.8076 40.3496 59.9894 40.2959 56.1442C40.2959 55.8216 40.0002 55.3914 39.7045 55.23C37.5271 54.0469 35.3497 52.8907 33.1454 51.7613C32.9034 51.6269 32.6077 51.6 32.312 51.5193C32.312 55.8216 32.312 59.9894 32.312 63.9958C35.0002 65.2327 37.6077 66.4158 40.3228 67.6258ZM14.4626 35.4129C14.0593 35.5473 13.683 35.6011 13.3873 35.7893C11.2905 36.8918 9.19374 38.0211 7.09697 39.1235C6.53245 39.4193 6.42492 39.8227 6.42492 40.4142C6.4518 43.9098 6.42492 47.4053 6.4518 50.9009C6.4518 51.1429 6.47869 51.4118 6.47869 51.5731C9.13998 50.3362 11.7744 49.1531 14.4626 47.9162C14.4626 43.856 14.4626 39.6882 14.4626 35.4129ZM6.4518 67.7065C9.13998 66.4696 11.7744 65.2596 14.4626 64.0227C14.4626 59.9894 14.4626 55.7947 14.4626 51.5462C14.0593 51.6807 13.7367 51.7345 13.4411 51.8689C11.3174 52.9982 9.19374 54.1545 7.07008 55.2569C6.53245 55.5258 6.4518 55.9291 6.4518 56.4938C6.47869 58.4298 6.4518 60.3927 6.4518 62.3287C6.4518 64.1572 6.4518 65.9587 6.4518 67.7065ZM17.769 91.8797C21.5862 91.8797 25.269 91.8797 28.9518 91.8797C28.9518 89.379 28.9518 86.9321 28.9518 84.4852C25.1884 83.7323 21.4787 83.6785 17.769 84.539C17.769 87.0128 17.769 89.4059 17.769 91.8797ZM67.7152 64.5067C63.3873 64.5067 59.0593 64.5067 54.7314 64.5067C54.4626 64.5067 54.14 64.426 53.9518 64.5336C53.683 64.6949 53.2798 65.0445 53.3066 65.2596C53.3335 65.5554 53.683 65.878 53.9787 66.0932C54.1669 66.2276 54.4894 66.12 54.7583 66.12C63.4142 66.12 72.0701 66.12 80.7529 66.12C81.0486 66.12 81.398 66.2007 81.64 66.0663C81.9088 65.9318 82.2314 65.5823 82.2045 65.3672C82.1776 65.0714 81.8819 64.7218 81.6131 64.5605C81.398 64.426 81.0217 64.5067 80.726 64.5067C76.398 64.5067 72.0432 64.5067 67.7152 64.5067ZM40.2421 91.9065C40.4841 89.5672 40.5109 89.5403 38.6292 88.3841C37.6077 87.7388 36.5593 87.1741 35.4841 86.6363C34.4894 86.1523 33.4142 85.7759 32.3389 85.3188C32.3389 87.6312 32.3389 89.7554 32.3389 91.9065C34.9733 91.9065 37.5808 91.9065 40.2421 91.9065ZM14.4626 91.9065C14.4626 89.7285 14.4626 87.6312 14.4626 85.5608C14.3819 85.5339 14.355 85.507 14.3281 85.507C11.5593 86.3137 9.11309 87.7657 6.77438 89.379C6.61309 89.4865 6.50557 89.7554 6.47869 89.9706C6.4518 90.589 6.47869 91.2343 6.47869 91.9065C9.13998 91.9065 11.7475 91.9065 14.4626 91.9065Z" fill="url(#paint0_linear_154_1457)"></path>
    <path d="M58.0648 51.5732C56.9626 51.5732 55.968 51.5732 54.8659 51.5732C54.8659 48.9112 54.8659 46.2492 54.8659 43.5872C54.7852 43.5872 54.7315 43.5603 54.6508 43.5603C54.1669 44.7165 53.6831 45.8996 53.253 47.0559C52.9573 47.8087 52.5272 48.3465 51.6669 48.3734C50.753 48.4003 50.296 47.8087 50.0003 47.029C49.5702 45.8727 49.0863 44.7165 48.468 43.5872C48.468 46.2223 48.468 48.8574 48.468 51.5732C47.339 51.5732 46.3444 51.5732 45.2691 51.5732C45.2422 51.3043 45.2153 51.0085 45.2153 50.7396C45.2153 46.9214 45.2153 43.0763 45.2153 39.2581C45.2153 37.6716 45.753 37.1338 47.3121 37.1338C49.4895 37.1069 49.5164 37.1607 50.3497 39.1774C50.753 40.1723 51.1562 41.1672 51.6132 42.3234C51.8014 42.0007 51.9358 41.8125 52.0433 41.5705C52.4734 40.495 52.9035 39.3925 53.3336 38.2901C53.6293 37.5372 54.1938 37.1069 55.054 37.1338C55.3766 37.1338 55.7261 37.1338 56.0487 37.1338C57.554 37.1338 58.1186 37.6716 58.1186 39.2043C58.0648 43.2376 58.0648 47.3516 58.0648 51.5732Z" fill="url(#paint1_linear_154_1457)"></path>
    <path d="M72.5271 51.2237C71.425 51.4926 70.4841 51.7346 69.4089 52.0034C68.9519 50.2826 68.5218 48.5617 68.0648 46.8139C66.8013 46.8139 65.5379 46.8139 64.14 46.8139C63.7099 48.481 63.2798 50.175 62.8228 51.9766C61.8013 51.7077 60.8067 51.4657 59.7314 51.1968C60.4304 48.4272 61.0755 45.7383 61.7476 43.0494C62.1239 41.5436 62.5271 40.0648 62.8766 38.559C63.1185 37.5641 63.7099 37.0801 64.7314 37.0801C65.6992 37.0801 66.6669 37.0801 67.6616 37.0801C68.468 37.0801 69.0594 37.4565 69.2476 38.2363C70.3497 42.5116 71.425 46.8139 72.5271 51.2237ZM67.2583 43.5065C67.0164 42.5654 66.8013 41.6512 66.5594 40.7639C66.5056 40.6025 66.2906 40.3605 66.1293 40.3605C65.9949 40.3605 65.7261 40.5756 65.6992 40.737C65.4304 41.6243 65.2422 42.5385 65.0003 43.5065C65.753 43.5065 66.4519 43.5065 67.2583 43.5065Z" fill="url(#paint2_linear_154_1457)"></path>
    <path d="M82.2046 48.3465C82.2046 49.5296 82.2046 50.5245 82.2046 51.6C79.9734 51.6 77.8229 51.6269 75.6455 51.5732C74.8121 51.5463 74.2207 50.9816 74.2207 50.148C74.1938 45.8189 74.1938 41.5167 74.1938 37.1338C75.2691 37.1338 76.2637 37.1338 77.3659 37.1338C77.3659 40.8445 77.3659 44.5282 77.3659 48.3465C79.0057 48.3465 80.5648 48.3465 82.2046 48.3465Z" fill="url(#paint3_linear_154_1457)"></path>
    <path d="M83.8713 37.1338C84.9735 37.1338 85.9681 37.1338 87.0702 37.1338C87.0702 40.8714 87.0702 44.582 87.0702 48.3465C88.71 48.3465 90.2423 48.3465 91.8552 48.3465C91.8552 49.422 91.8552 50.4438 91.8552 51.5732C89.6509 51.5732 87.4197 51.6269 85.1885 51.5463C84.3821 51.5194 83.8982 50.8472 83.8713 50.0136C83.8444 45.7383 83.8713 41.4898 83.8713 37.1338Z" fill="url(#paint4_linear_154_1457)"></path>
  </g>
  <defs>
    <linearGradient id="paint0_linear_154_1457" x1="50.0089" y1="-0.000244141" x2="50.0089" y2="100" gradientUnits="userSpaceOnUse">
      <stop stop-color="#F49627"></stop>
      <stop offset="1" stop-color="#ED6D2B"></stop>
    </linearGradient>
    <linearGradient id="paint1_linear_154_1457" x1="51.6669" y1="37.1299" x2="51.6669" y2="51.5732" gradientUnits="userSpaceOnUse">
      <stop stop-color="#F49627"></stop>
      <stop offset="1" stop-color="#ED6D2B"></stop>
    </linearGradient>
    <linearGradient id="paint2_linear_154_1457" x1="66.1293" y1="37.0801" x2="66.1293" y2="52.0034" gradientUnits="userSpaceOnUse">
      <stop stop-color="#F49627"></stop>
      <stop offset="1" stop-color="#ED6D2B"></stop>
    </linearGradient>
    <linearGradient id="paint3_linear_154_1457" x1="78.1992" y1="37.1338" x2="78.1992" y2="51.6068" gradientUnits="userSpaceOnUse">
      <stop stop-color="#F49627"></stop>
      <stop offset="1" stop-color="#ED6D2B"></stop>
    </linearGradient>
    <linearGradient id="paint4_linear_154_1457" x1="87.8573" y1="37.1338" x2="87.8573" y2="51.5907" gradientUnits="userSpaceOnUse">
      <stop stop-color="#F49627"></stop>
      <stop offset="1" stop-color="#ED6D2B"></stop>
    </linearGradient>
    <clipPath id="clip0_154_1457">
      <rect width="100" height="100" fill="white"></rect>
    </clipPath>
  </defs>
</svg>
