<?xml version="1.0" encoding="UTF-8"?>
<svg xmlns="http://www.w3.org/2000/svg" width="100" height="100" viewBox="0 0 100 100" fill="none">
  <g clip-path="url(#clip0_154_1521)">
    <path d="M38.7099 32.2573C43.0647 32.4725 45.1078 34.0329 45.1615 37.0461C45.2153 40.1131 43.2529 41.6466 38.7099 42.0501C38.7099 42.3999 38.7099 42.7496 38.7099 43.0994C38.7099 48.48 38.7099 53.8607 38.7099 59.2414C38.7099 64.4069 35.2959 67.7967 30.1078 67.7967C25.0809 67.7967 20.0271 67.7967 15.0002 67.7967C9.8927 67.7967 6.47872 64.3531 6.45184 59.2683C6.45184 53.5648 6.45184 47.8344 6.45184 41.9694C5.88732 41.9694 5.37657 41.9694 4.86582 41.9694C2.12388 41.9156 0.000226141 39.7633 0.0271079 37.073C0.0539896 34.4365 2.17765 32.338 4.86582 32.2842C5.34969 32.2842 5.86044 32.2842 6.47872 32.2842C6.47872 30.0243 6.37119 27.8451 6.5056 25.6929C6.61313 24.0517 6.85506 22.3299 7.44646 20.7964C9.24754 16.0345 13.8712 12.9406 18.9518 12.9406C22.0164 12.9406 25.0809 12.7792 28.0916 13.1559C34.0325 13.8823 38.5755 19.1822 38.7099 25.1548C38.7368 27.4954 38.7099 29.836 38.7099 32.2573ZM35.4841 46.0318C35.4841 44.0948 35.511 42.1308 35.4572 40.1938C35.4572 39.7902 35.2422 39.2791 34.9196 39.01C33.1454 37.4766 31.1024 36.239 28.7637 35.97C25.6454 35.6202 22.4733 35.5664 19.3282 35.5664C15.8873 35.5664 12.8228 36.804 10.1884 39.037C9.8927 39.2791 9.67765 39.7633 9.67765 40.1131C9.65076 44.041 9.65076 47.9689 9.67765 51.9237C9.67765 52.3003 9.8927 52.7846 10.1615 53.0267C11.9357 54.5602 13.9787 55.8247 16.2905 56.0937C19.3013 56.4435 22.3658 56.4973 25.4303 56.5242C28.9518 56.578 32.097 55.3942 34.7852 53.1343C35.1346 52.8384 35.4035 52.2734 35.4303 51.8161C35.511 49.8521 35.4841 47.942 35.4841 46.0318ZM35.3766 35.2436C35.3766 31.504 35.3766 27.872 35.3766 24.2132C32.8228 24.2132 30.3228 24.536 28.226 22.8142C26.1293 21.0924 25.6185 18.7787 25.8067 16.2229C23.5755 16.2229 21.4787 16.2229 19.3551 16.2229C19.3551 16.6533 19.3551 17.03 19.3551 17.4066C19.3282 21.469 16.6131 24.1863 12.5271 24.2132C11.64 24.2132 10.726 24.2132 9.75829 24.2132C9.75829 27.9258 9.75829 31.5309 9.75829 35.1898C10.7529 34.6786 11.6669 34.1405 12.6615 33.737C17.8497 31.5847 23.2798 32.1497 28.6561 32.607C31.0755 32.8223 33.2529 33.9253 35.3766 35.2436ZM9.67765 56.9546C9.67765 57.8693 9.65076 58.8379 9.67765 59.8064C9.75829 62.3891 11.7744 64.5145 14.3551 64.5414C19.8389 64.5952 25.2959 64.5683 30.7798 64.5414C32.9572 64.5145 34.8658 63.0348 35.269 60.9094C35.5379 59.5912 35.4572 58.2191 35.511 57.0353C33.2798 57.8155 31.2099 58.9455 29.0056 59.2414C25.8604 59.6988 22.6615 59.645 19.4895 59.6719C18.0647 59.6719 16.5862 59.4836 15.2153 59.08C13.3604 58.5419 11.5594 57.7079 9.67765 56.9546ZM10.8873 20.931C14.8121 21.2 16.6938 19.5858 15.9411 16.6802C13.7905 17.4873 12.1508 18.8325 10.8873 20.931ZM34.14 20.931C33.2798 18.967 30.9142 17.0569 29.0862 16.7878C28.7637 19.8817 30.2959 21.1731 34.14 20.931ZM6.42496 35.5395C5.29592 35.5933 4.08625 35.1629 3.49485 36.4004C3.2798 36.8578 3.33356 37.638 3.60238 38.0684C4.27442 39.1177 5.40345 38.741 6.45184 38.7141C6.42496 37.6111 6.42496 36.6425 6.42496 35.5395ZM38.7637 38.7141C39.8658 38.6872 41.0486 39.0908 41.6669 37.907C41.8819 37.4766 41.8551 36.6694 41.5862 36.239C40.9411 35.1629 39.7852 35.5664 38.7368 35.5395C38.7637 36.6156 38.7637 37.6111 38.7637 38.7141Z" fill="url(#paint0_linear_154_1521)"></path>
    <path d="M93.5485 32.2033C98.0915 32.6069 100.054 34.1404 100 37.2074C99.9464 40.2205 97.9034 41.7809 93.5485 41.9962C93.5485 42.3459 93.5485 42.6957 93.5485 43.0454C93.5485 48.453 93.5485 53.8606 93.5485 59.2682C93.5485 64.326 90.1077 67.7696 85.0808 67.7696C79.9732 67.7696 74.8657 67.7696 69.7582 67.7696C64.7313 67.7696 61.2905 64.326 61.2905 59.2682C61.2905 53.8875 61.2905 48.5068 61.2905 43.1261C61.2905 42.7764 61.2905 42.3997 61.2905 41.9155C59.2206 42.05 57.312 41.8347 55.941 40.1398C55.1614 39.1982 54.812 38.0952 54.8388 36.8576C54.9464 33.9251 56.8819 32.4993 61.2905 32.1764C61.2905 31.2348 61.2636 30.2663 61.2905 29.2978C61.398 26.9572 61.2636 24.5628 61.7474 22.276C62.9302 16.8953 68.0109 12.9136 73.5216 12.8598C76.6668 12.8329 79.8657 12.6984 82.984 13.075C88.8442 13.7745 93.4141 19.1014 93.5216 25.047C93.5754 27.4683 93.5485 29.8089 93.5485 32.2033ZM64.5163 45.9779C64.5163 47.9149 64.4894 49.8789 64.5431 51.8159C64.5431 52.2195 64.7582 52.7306 65.0539 52.9997C66.8281 54.5332 68.8711 55.7707 71.2098 56.0398C74.3012 56.3895 77.4195 56.4433 80.5378 56.4702C84.0055 56.4971 87.0969 55.2596 89.7582 52.9997C90.0539 52.7575 90.2689 52.2195 90.2958 51.8159C90.3227 47.9149 90.3227 44.0139 90.2958 40.1129C90.2958 39.7094 90.0539 39.1982 89.7313 38.9561C87.9302 37.4226 85.9141 36.185 83.5754 35.9429C80.5646 35.6201 77.5001 35.5663 74.4356 35.5394C70.9141 35.5124 67.7958 36.7231 65.1077 38.983C64.7851 39.252 64.5431 39.817 64.5431 40.2475C64.4894 42.1307 64.5163 44.0677 64.5163 45.9779ZM80.6722 16.1958C78.4141 16.1958 76.3442 16.1958 74.1937 16.1958C74.1937 16.6801 74.1937 17.1105 74.1937 17.541C74.1668 21.442 71.398 24.1861 67.5001 24.213C66.5593 24.213 65.6453 24.213 64.5969 24.213C64.5969 27.9257 64.5969 31.5307 64.5969 34.8937C66.7206 34.1404 68.8173 33.0373 71.0216 32.7414C74.1937 32.284 77.4464 32.3647 80.6453 32.3109C83.0109 32.284 85.2958 32.8221 87.4732 33.7906C88.4141 34.2211 89.3012 34.7053 90.2152 35.1627C90.2152 31.5038 90.2152 27.8988 90.2152 24.213C87.6883 24.1592 85.1883 24.5359 83.0915 22.814C80.9948 21.0922 80.4571 18.8054 80.6722 16.1958ZM90.3227 57.089C88.1184 57.8692 85.9948 58.9453 83.7636 59.2951C80.8066 59.7524 77.7421 59.6717 74.7313 59.7255C71.2905 59.7793 68.0915 58.8646 65.1614 57.089C64.9732 56.9814 64.7851 56.9276 64.5163 56.82C64.5163 57.923 64.4894 58.9453 64.5163 59.9407C64.6238 62.4159 66.613 64.5143 69.113 64.5412C74.6507 64.595 80.1883 64.595 85.7259 64.5412C88.1722 64.5143 90.1614 62.4697 90.2958 60.0215C90.3496 58.9722 90.3227 57.9499 90.3227 57.089ZM70.8603 16.6801C68.6292 17.4603 66.9625 18.8323 65.7797 20.877C69.4087 21.442 71.2905 19.8816 70.8603 16.6801ZM83.9517 16.6801C83.441 19.5318 85.4302 21.711 89.0324 20.8232C87.8227 18.8323 86.1829 17.4334 83.9517 16.6801ZM61.2367 35.4855C60.1077 35.5932 58.8711 35.1358 58.3066 36.4003C58.0915 36.8576 58.1453 37.6378 58.441 38.0683C59.1399 39.1175 60.2421 38.714 61.2636 38.6871C61.2367 37.6109 61.2367 36.6155 61.2367 35.4855ZM93.6023 38.714C94.6776 38.687 95.8872 39.1175 96.5055 37.9069C96.7474 37.4495 96.6937 36.6155 96.398 36.1581C95.7259 35.1089 94.5969 35.5663 93.6023 35.5124C93.6023 36.6693 93.6023 37.6647 93.6023 38.714Z" fill="url(#paint1_linear_154_1521)"></path>
    <path d="M0.0273438 74.1726C0.0273438 73.1234 0.0273438 72.128 0.0273438 71.0518C16.1026 71.0518 32.151 71.0518 48.3069 71.0518C48.3069 47.3768 48.3069 23.7556 48.3069 0.0537109C49.4359 0.0537109 50.4575 0.0537109 51.5596 0.0537109C51.5596 23.648 51.5596 47.2692 51.5596 70.998C67.7424 70.998 83.7908 70.998 99.9198 70.998C99.9198 72.1011 99.9198 73.0965 99.9198 74.1726C66.6671 74.1726 33.4144 74.1726 0.0273438 74.1726Z" fill="url(#paint2_linear_154_1521)"></path>
    <path d="M0.0273438 99.9999C0.0273438 98.9507 0.0273438 97.9552 0.0273438 96.906C33.3338 96.906 66.6134 96.906 99.9467 96.906C99.9467 97.9283 99.9467 98.9238 99.9467 99.9999C66.6671 99.9999 33.4144 99.9999 0.0273438 99.9999Z" fill="url(#paint3_linear_154_1521)"></path>
    <path d="M22.4734 9.68523C16.8013 9.68523 11.1293 9.68523 5.43038 9.68523C3.70995 9.68523 3.22607 9.17406 3.22607 7.45225C3.22607 5.59591 3.22607 3.76648 3.22607 1.91014C3.22607 0.591875 3.81747 0 5.13468 0C16.7476 0 28.3874 0 40.0003 0C41.3175 0 41.9089 0.591875 41.9089 1.91014C41.9358 3.82028 41.9089 5.73043 41.9089 7.66747C41.9089 9.12026 41.3444 9.68523 39.8927 9.68523C34.1132 9.68523 28.2798 9.68523 22.4734 9.68523ZM6.50564 6.37611C17.2852 6.37611 27.9841 6.37611 38.6831 6.37611C38.6831 5.29997 38.6831 4.30455 38.6831 3.28222C27.9304 3.28222 17.2583 3.28222 6.50564 3.28222C6.50564 4.33145 6.50564 5.32688 6.50564 6.37611Z" fill="url(#paint4_linear_154_1521)"></path>
    <path d="M77.3391 9.68523C71.6671 9.68523 65.9951 9.68523 60.2961 9.68523C58.5757 9.68523 58.0649 9.17406 58.0649 7.47915C58.0649 5.62281 58.0649 3.79338 58.0649 1.93705C58.0649 0.618778 58.6563 0 59.9735 0C71.5864 0 83.2262 0 94.8391 0C96.1563 0 96.7477 0.591875 96.7746 1.91014C96.8015 3.82028 96.7746 5.73043 96.7746 7.66747C96.7746 9.14716 96.2101 9.68523 94.6778 9.71213C88.8983 9.68523 83.1187 9.68523 77.3391 9.68523ZM61.3445 6.37611C72.1241 6.37611 82.823 6.37611 93.5219 6.37611C93.5219 5.29997 93.5219 4.30455 93.5219 3.28222C82.7961 3.28222 72.0972 3.28222 61.3445 3.28222C61.3445 4.33145 61.3445 5.32688 61.3445 6.37611Z" fill="url(#paint5_linear_154_1521)"></path>
    <path d="M14.4627 84.0193C14.4627 85.0954 14.4627 86.0909 14.4627 87.1132C12.3391 87.1132 10.296 87.1132 8.14551 87.1132C8.14551 86.1178 8.14551 85.0954 8.14551 84.0193C10.2154 84.0193 12.2853 84.0193 14.4627 84.0193Z" fill="url(#paint6_linear_154_1521)"></path>
    <path d="M27.3392 87.1132C25.1886 87.1132 23.1187 87.1132 21.022 87.1132C21.022 86.0639 21.022 85.0685 21.022 84.0193C23.0919 84.0193 25.1886 84.0193 27.3392 84.0193C27.3392 85.0147 27.3392 86.037 27.3392 87.1132Z" fill="url(#paint7_linear_154_1521)"></path>
    <path d="M40.242 87.1132C38.0915 87.1132 36.0216 87.1132 33.9248 87.1132C33.9248 86.0639 33.9248 85.0685 33.9248 84.0193C35.9947 84.0193 38.0915 84.0193 40.242 84.0193C40.242 85.0147 40.242 86.037 40.242 87.1132Z" fill="url(#paint8_linear_154_1521)"></path>
    <path d="M53.1453 87.1132C50.9948 87.1132 48.9249 87.1132 46.8281 87.1132C46.8281 86.0639 46.8281 85.0685 46.8281 84.0193C48.898 84.0193 50.9948 84.0193 53.1453 84.0193C53.1453 85.0147 53.1453 86.037 53.1453 87.1132Z" fill="url(#paint9_linear_154_1521)"></path>
    <path d="M66.0486 87.1401C63.925 87.1401 61.882 87.1401 59.7314 87.1401C59.7314 86.0909 59.7314 85.0686 59.7314 83.9924C61.8282 83.9924 63.8981 83.9924 66.0486 83.9924C66.0486 84.9879 66.0486 86.0102 66.0486 87.1401Z" fill="url(#paint10_linear_154_1521)"></path>
    <path d="M78.9519 87.1401C76.8283 87.1401 74.7853 87.1401 72.6616 87.1401C72.6616 86.1178 72.6616 85.0955 72.6616 83.9924C74.7315 83.9924 76.8283 83.9924 78.9519 83.9924C78.9519 85.0686 78.9519 86.0909 78.9519 87.1401Z" fill="url(#paint11_linear_154_1521)"></path>
    <path d="M91.8553 87.1401C89.7316 87.1401 87.6886 87.1401 85.5649 87.1401C85.5649 86.1178 85.5649 85.0955 85.5649 83.9924C87.6348 83.9924 89.7316 83.9924 91.8553 83.9924C91.8553 85.0686 91.8553 86.0909 91.8553 87.1401Z" fill="url(#paint12_linear_154_1521)"></path>
  </g>
  <defs>
    <linearGradient id="paint0_linear_154_1521" x1="22.5947" y1="12.9062" x2="22.5947" y2="67.7967" gradientUnits="userSpaceOnUse">
      <stop stop-color="#F49627"></stop>
      <stop offset="1" stop-color="#ED6D2B"></stop>
    </linearGradient>
    <linearGradient id="paint1_linear_154_1521" x1="77.4193" y1="12.8145" x2="77.4193" y2="67.7696" gradientUnits="userSpaceOnUse">
      <stop stop-color="#F49627"></stop>
      <stop offset="1" stop-color="#ED6D2B"></stop>
    </linearGradient>
    <linearGradient id="paint2_linear_154_1521" x1="49.9736" y1="0.0537109" x2="49.9736" y2="74.1726" gradientUnits="userSpaceOnUse">
      <stop stop-color="#F49627"></stop>
      <stop offset="1" stop-color="#ED6D2B"></stop>
    </linearGradient>
    <linearGradient id="paint3_linear_154_1521" x1="49.987" y1="96.906" x2="49.987" y2="99.9999" gradientUnits="userSpaceOnUse">
      <stop stop-color="#F49627"></stop>
      <stop offset="1" stop-color="#ED6D2B"></stop>
    </linearGradient>
    <linearGradient id="paint4_linear_154_1521" x1="22.5734" y1="0" x2="22.5734" y2="9.68523" gradientUnits="userSpaceOnUse">
      <stop stop-color="#F49627"></stop>
      <stop offset="1" stop-color="#ED6D2B"></stop>
    </linearGradient>
    <linearGradient id="paint5_linear_154_1521" x1="77.4258" y1="0" x2="77.4258" y2="9.71213" gradientUnits="userSpaceOnUse">
      <stop stop-color="#F49627"></stop>
      <stop offset="1" stop-color="#ED6D2B"></stop>
    </linearGradient>
    <linearGradient id="paint6_linear_154_1521" x1="11.3041" y1="84.0193" x2="11.3041" y2="87.1132" gradientUnits="userSpaceOnUse">
      <stop stop-color="#F49627"></stop>
      <stop offset="1" stop-color="#ED6D2B"></stop>
    </linearGradient>
    <linearGradient id="paint7_linear_154_1521" x1="24.1806" y1="84.0193" x2="24.1806" y2="87.1132" gradientUnits="userSpaceOnUse">
      <stop stop-color="#F49627"></stop>
      <stop offset="1" stop-color="#ED6D2B"></stop>
    </linearGradient>
    <linearGradient id="paint8_linear_154_1521" x1="37.0834" y1="84.0193" x2="37.0834" y2="87.1132" gradientUnits="userSpaceOnUse">
      <stop stop-color="#F49627"></stop>
      <stop offset="1" stop-color="#ED6D2B"></stop>
    </linearGradient>
    <linearGradient id="paint9_linear_154_1521" x1="49.9867" y1="84.0193" x2="49.9867" y2="87.1132" gradientUnits="userSpaceOnUse">
      <stop stop-color="#F49627"></stop>
      <stop offset="1" stop-color="#ED6D2B"></stop>
    </linearGradient>
    <linearGradient id="paint10_linear_154_1521" x1="62.89" y1="83.9924" x2="62.89" y2="87.1401" gradientUnits="userSpaceOnUse">
      <stop stop-color="#F49627"></stop>
      <stop offset="1" stop-color="#ED6D2B"></stop>
    </linearGradient>
    <linearGradient id="paint11_linear_154_1521" x1="75.8068" y1="83.9924" x2="75.8068" y2="87.1401" gradientUnits="userSpaceOnUse">
      <stop stop-color="#F49627"></stop>
      <stop offset="1" stop-color="#ED6D2B"></stop>
    </linearGradient>
    <linearGradient id="paint12_linear_154_1521" x1="88.7101" y1="83.9924" x2="88.7101" y2="87.1401" gradientUnits="userSpaceOnUse">
      <stop stop-color="#F49627"></stop>
      <stop offset="1" stop-color="#ED6D2B"></stop>
    </linearGradient>
    <clipPath id="clip0_154_1521">
      <rect width="100" height="100" fill="white"></rect>
    </clipPath>
  </defs>
</svg>
