<?xml version="1.0" encoding="UTF-8"?>
<svg xmlns="http://www.w3.org/2000/svg" width="95" height="99" viewBox="0 0 95 99" fill="none">
  <g clip-path="url(#clip0_154_1494)">
    <path d="M90.8957 94.875C91.6945 94.875 92.3555 94.8475 92.9891 94.875C94.1735 94.93 95.0273 95.8375 94.9998 96.9375C94.9998 98.0375 94.1459 98.9175 92.9615 99C92.6861 99.0275 92.4106 99 92.1352 99C62.3874 99 32.6397 99 2.89191 99C0.963815 99 -0.0553206 98.2575 -0.0277764 96.8825C-0.000232144 95.535 0.963815 94.875 2.86437 94.875C4.59965 94.875 6.36248 94.875 8.20794 94.875C8.20794 94.38 8.20794 93.995 8.20794 93.5825C8.20794 70.235 8.20794 46.915 8.20794 23.5675C8.20794 21.4225 8.56602 20.955 10.6869 20.46C12.5875 20.02 14.488 19.58 16.4712 19.1125C16.4712 17.105 16.4712 15.1525 16.4712 13.2C16.4712 11.11 16.8293 10.67 18.8676 10.1475C20.5202 9.735 22.2004 9.2675 23.8806 8.91C24.5417 8.7725 24.762 8.4975 24.762 7.81C24.7069 5.995 24.7345 4.18 24.762 2.3375C24.762 0.907498 25.5883 -1.99543e-06 26.8003 -0.027502C28.0398 -0.055002 28.8937 0.907498 28.8937 2.3925C28.8937 4.0975 28.8937 5.83 28.8937 7.645C30.7391 7.1775 32.5019 6.7375 34.2648 6.325C36.0276 5.885 37.1294 6.765 37.1569 8.6075C37.1569 10.45 37.1569 12.32 37.1569 14.245C39.691 13.64 42.1424 13.0625 44.5663 12.54C45.0897 12.43 45.6681 12.43 46.1639 12.54C48.6153 13.0625 51.0667 13.64 53.6559 14.245C53.6559 12.65 53.6559 11.1375 53.6559 9.625C53.6559 9.185 53.6284 8.7175 53.6559 8.2775C53.7385 6.8475 54.8679 5.94 56.2726 6.27C58.1181 6.6825 59.936 7.1775 61.9192 7.6725C61.9192 5.83 61.9192 4.0425 61.9192 2.2825C61.9192 1.0725 62.5802 0.219998 63.6269 0.027498C64.8939 -0.192502 65.9957 0.769998 66.0233 2.2C66.0508 4.0975 66.0508 5.995 66.0233 7.865C66.0233 8.4975 66.1885 8.745 66.822 8.8825C68.695 9.295 70.5681 9.79 72.4135 10.285C73.7907 10.6425 74.2865 11.3025 74.2865 12.7325C74.2865 14.7675 74.2865 16.775 74.3141 18.81C74.3141 18.865 74.3416 18.9475 74.3967 19.1125C76.4074 19.58 78.4732 20.075 80.5391 20.57C82.1091 20.955 82.5773 21.56 82.5773 23.1825C82.5773 26.4 82.5773 29.645 82.5773 32.9725C84.5054 32.9725 86.3509 32.9725 88.1964 32.9725C90.152 32.9725 90.8406 33.66 90.8406 35.6675C90.8406 54.945 90.8406 74.2225 90.8406 93.5275C90.8957 93.94 90.8957 94.3525 90.8957 94.875ZM78.4457 94.82C78.4457 71.28 78.4457 47.8225 78.4457 24.2825C68.1442 21.8625 57.8702 19.4425 47.5686 17.0225C47.5686 43.0375 47.5686 68.915 47.5686 94.7925C57.8702 94.82 68.1166 94.82 78.4457 94.82ZM86.6814 94.82C86.6814 75.5425 86.6814 56.3475 86.6814 37.2075C85.2767 37.2075 83.9821 37.2075 82.6875 37.2075C82.6875 56.4575 82.6875 75.625 82.6875 94.82C84.0372 94.82 85.3318 94.82 86.6814 94.82ZM43.3268 17.05C32.9702 19.47 22.6962 21.89 12.4222 24.31C12.4222 26.3725 12.4222 28.2975 12.4222 30.3875C22.7788 27.9675 33.0528 25.5475 43.3268 23.1275C43.3268 21.065 43.3268 19.1125 43.3268 17.05ZM43.3268 37.675C32.9427 40.1225 22.6962 42.515 12.4498 44.935C12.4498 46.97 12.4498 48.95 12.4498 51.0125C22.8064 48.5925 33.0528 46.1725 43.3268 43.7525C43.3268 41.7175 43.3268 39.7925 43.3268 37.675ZM43.3268 27.3625C32.9702 29.7825 22.6962 32.2025 12.4222 34.6225C12.4222 36.685 12.4222 38.6375 12.4222 40.7C22.7788 38.28 33.0528 35.86 43.3268 33.44C43.3268 31.3775 43.3268 29.425 43.3268 27.3625ZM43.3268 78.925C39.1401 79.915 35.0911 80.8775 31.0696 81.8125C31.0696 86.2125 31.0696 90.53 31.0696 94.82C35.2013 94.82 39.2503 94.82 43.3268 94.82C43.3268 89.54 43.3268 84.315 43.3268 78.925ZM12.4222 94.82C17.27 94.82 22.0076 94.82 26.8003 94.82C26.8003 90.805 26.8003 86.8725 26.8003 82.83C21.9525 83.9575 17.1874 85.085 12.4222 86.2125C12.4222 89.1 12.4222 91.905 12.4222 94.82ZM12.4222 61.325C17.2975 60.17 22.0627 59.07 26.8003 57.9425C26.8003 55.9075 26.8003 53.955 26.8003 51.865C21.9525 52.9925 17.1598 54.12 12.4222 55.2475C12.4222 57.31 12.4222 59.235 12.4222 61.325ZM26.8003 68.255C26.8003 66.1925 26.8003 64.24 26.8003 62.1775C21.9801 63.305 17.2149 64.4325 12.4498 65.5325C12.4498 67.5675 12.4498 69.5475 12.4498 71.61C17.27 70.51 22.0076 69.3825 26.8003 68.255ZM12.4222 81.95C17.2975 80.795 22.0627 79.695 26.8278 78.5675C26.8278 76.5325 26.8278 74.58 26.8278 72.49C21.9801 73.6175 17.1874 74.745 12.4222 75.8725C12.4222 77.935 12.4222 79.86 12.4222 81.95ZM43.3268 48.015C39.3054 48.95 35.339 49.885 31.3726 50.82C31.2074 50.8475 31.0146 51.205 30.987 51.425C30.9595 53.24 30.9595 55.055 30.9595 56.98C35.1462 55.99 39.2503 55.0275 43.2993 54.065C43.3268 52.0025 43.3268 50.05 43.3268 48.015ZM30.987 67.2925C35.036 66.33 38.9748 65.4225 42.8861 64.4875C43.0789 64.4325 43.3268 64.13 43.3544 63.965C43.3819 62.1225 43.3819 60.28 43.3819 58.3275C39.3329 59.2625 35.3941 60.1975 31.4553 61.1325C31.2625 61.1875 31.0146 61.49 31.0146 61.6825C30.9595 63.4975 30.987 65.34 30.987 67.2925ZM43.3268 68.64C39.3054 69.575 35.3941 70.4825 31.5104 71.4175C31.3175 71.4725 31.0146 71.7475 31.0146 71.9125C30.987 73.7825 30.987 75.6525 30.987 77.605C35.2013 76.615 39.2503 75.6525 43.3544 74.69C43.3268 72.655 43.3268 70.7025 43.3268 68.64ZM20.6579 18.15C24.8447 17.16 28.9487 16.1975 33.0253 15.235C33.0253 13.75 33.0253 12.375 33.0253 11C32.9151 10.9725 32.86 10.945 32.8049 10.945C28.9487 11.9075 25.065 12.8425 21.2088 13.8325C20.9885 13.8875 20.713 14.2175 20.6855 14.4375C20.6304 15.6475 20.6579 16.8575 20.6579 18.15ZM57.8702 15.235C61.9743 16.1975 66.0508 17.16 70.1824 18.1225C70.1824 16.665 70.1824 15.3725 70.1824 13.97C66.1059 12.9525 62.0018 11.935 57.8702 10.89C57.8702 12.3475 57.8702 13.7225 57.8702 15.235Z" fill="url(#paint0_linear_154_1494)"></path>
    <path d="M51.7002 47.4924C53.0774 47.4924 54.372 47.4924 55.6941 47.4924C55.6941 50.2149 55.6941 52.8549 55.6941 55.6049C54.3995 55.6049 53.0774 55.6049 51.7002 55.6049C51.7002 52.9374 51.7002 50.2699 51.7002 47.4924Z" fill="url(#paint1_linear_154_1494)"></path>
    <path d="M61.8919 55.6325C60.5146 55.6325 59.2476 55.6325 57.8979 55.6325C57.8979 52.91 57.8979 50.27 57.8979 47.52C59.1925 47.52 60.5146 47.52 61.8919 47.52C61.8919 50.1875 61.8919 52.8825 61.8919 55.6325Z" fill="url(#paint2_linear_154_1494)"></path>
    <path d="M64.0952 47.4924C65.4724 47.4924 66.767 47.4924 68.0891 47.4924C68.0891 50.2149 68.0891 52.8549 68.0891 55.6049C66.7945 55.6049 65.4724 55.6049 64.0952 55.6049C64.0952 52.9374 64.0952 50.2699 64.0952 47.4924Z" fill="url(#paint3_linear_154_1494)"></path>
    <path d="M74.2864 55.6325C72.9092 55.6325 71.6146 55.6325 70.2925 55.6325C70.2925 52.91 70.2925 50.27 70.2925 47.52C71.5871 47.52 72.9092 47.52 74.2864 47.52C74.2864 50.1875 74.2864 52.8825 74.2864 55.6325Z" fill="url(#paint4_linear_154_1494)"></path>
    <path d="M51.7002 26.8674C53.0774 26.8674 54.372 26.8674 55.6941 26.8674C55.6941 29.5899 55.6941 32.2299 55.6941 34.9799C54.3995 34.9799 53.0774 34.9799 51.7002 34.9799C51.7002 32.3124 51.7002 29.6174 51.7002 26.8674Z" fill="url(#paint5_linear_154_1494)"></path>
    <path d="M61.8917 35.0349C60.542 35.0349 59.275 35.0349 57.9253 35.0349C57.9253 32.3124 57.9253 29.6449 57.9253 26.8674C59.2199 26.8674 60.542 26.8674 61.8917 26.8674C61.8917 29.6174 61.8917 32.3124 61.8917 35.0349Z" fill="url(#paint6_linear_154_1494)"></path>
    <path d="M51.645 65.945C51.645 63.195 51.645 60.555 51.645 57.8325C52.9671 57.8325 54.2893 57.8325 55.694 57.8325C55.694 60.5 55.694 63.1675 55.694 65.945C54.3719 65.945 53.0773 65.945 51.645 65.945Z" fill="url(#paint7_linear_154_1494)"></path>
    <path d="M57.8701 65.9175C57.8701 63.195 57.8701 60.555 57.8701 57.8325C59.1922 57.8325 60.5144 57.8325 61.9191 57.8325C61.9191 60.5 61.9191 63.195 61.9191 65.9175C60.5419 65.9175 59.1922 65.9175 57.8701 65.9175Z" fill="url(#paint8_linear_154_1494)"></path>
    <path d="M64.0952 57.8049C65.4724 57.8049 66.767 57.8049 68.0891 57.8049C68.0891 60.5274 68.0891 63.1674 68.0891 65.9174C66.7945 65.9174 65.4724 65.9174 64.0952 65.9174C64.0952 63.2499 64.0952 60.5824 64.0952 57.8049Z" fill="url(#paint9_linear_154_1494)"></path>
    <path d="M70.2925 57.8049C71.6697 57.8049 72.9643 57.8049 74.2864 57.8049C74.2864 60.5274 74.2864 63.1674 74.2864 65.9174C72.9918 65.9174 71.6697 65.9174 70.2925 65.9174C70.2925 63.2499 70.2925 60.5549 70.2925 57.8049Z" fill="url(#paint10_linear_154_1494)"></path>
    <path d="M68.1442 26.895C68.1442 29.6175 68.1442 32.2575 68.1442 34.98C66.8221 34.98 65.5 34.98 64.0952 34.98C64.0952 32.3125 64.0952 29.6175 64.0952 26.895C65.4449 26.895 66.7945 26.895 68.1442 26.895Z" fill="url(#paint11_linear_154_1494)"></path>
    <path d="M74.2867 35.0349C72.937 35.0349 71.67 35.0349 70.3203 35.0349C70.3203 32.3124 70.3203 29.6449 70.3203 26.8674C71.6149 26.8674 72.937 26.8674 74.2867 26.8674C74.2867 29.6174 74.2867 32.3124 74.2867 35.0349Z" fill="url(#paint12_linear_154_1494)"></path>
    <path d="M55.7217 68.1174C55.7217 70.8124 55.7217 73.4799 55.7217 76.2299C54.3995 76.2299 53.105 76.2299 51.7002 76.2299C51.7002 73.5624 51.7002 70.8674 51.7002 68.1174C53.0223 68.1174 54.3444 68.1174 55.7217 68.1174Z" fill="url(#paint13_linear_154_1494)"></path>
    <path d="M55.6941 45.32C54.3169 45.32 53.0223 45.32 51.7002 45.32C51.7002 42.5975 51.7002 39.9575 51.7002 37.2075C52.9948 37.2075 54.3169 37.2075 55.6941 37.2075C55.6941 39.875 55.6941 42.57 55.6941 45.32Z" fill="url(#paint14_linear_154_1494)"></path>
    <path d="M68.1165 68.145C68.1165 70.8675 68.1165 73.535 68.1165 76.2575C66.7943 76.2575 65.4998 76.2575 64.1226 76.2575C64.1226 73.59 64.1226 70.895 64.1226 68.145C65.3896 68.145 66.7117 68.145 68.1165 68.145Z" fill="url(#paint15_linear_154_1494)"></path>
    <path d="M74.2864 76.2575C72.9092 76.2575 71.6421 76.2575 70.2925 76.2575C70.2925 73.535 70.2925 70.895 70.2925 68.145C71.5871 68.145 72.9092 68.145 74.2864 68.145C74.2864 70.8125 74.2864 73.5075 74.2864 76.2575Z" fill="url(#paint16_linear_154_1494)"></path>
    <path d="M61.8917 45.3474C60.542 45.3474 59.275 45.3474 57.9253 45.3474C57.9253 42.6249 57.9253 39.9574 57.9253 37.1799C59.2199 37.1799 60.542 37.1799 61.8917 37.1799C61.8917 39.9299 61.8917 42.6249 61.8917 45.3474Z" fill="url(#paint17_linear_154_1494)"></path>
    <path d="M68.0891 45.32C66.7119 45.32 65.4173 45.32 64.0952 45.32C64.0952 42.5975 64.0952 39.9575 64.0952 37.2075C65.3898 37.2075 66.7119 37.2075 68.0891 37.2075C68.0891 39.875 68.0891 42.57 68.0891 45.32Z" fill="url(#paint18_linear_154_1494)"></path>
    <path d="M57.8979 68.1174C59.2752 68.1174 60.5422 68.1174 61.8919 68.1174C61.8919 70.8399 61.8919 73.4799 61.8919 76.2299C60.5973 76.2299 59.2752 76.2299 57.8979 76.2299C57.8979 73.5624 57.8979 70.8949 57.8979 68.1174Z" fill="url(#paint19_linear_154_1494)"></path>
    <path d="M57.8979 78.4299C59.2752 78.4299 60.5422 78.4299 61.8919 78.4299C61.8919 81.1524 61.8919 83.7924 61.8919 86.5424C60.5973 86.5424 59.2752 86.5424 57.8979 86.5424C57.8979 83.8749 57.8979 81.2074 57.8979 78.4299Z" fill="url(#paint20_linear_154_1494)"></path>
    <path d="M68.0891 86.57C66.7119 86.57 65.4449 86.57 64.0952 86.57C64.0952 83.8475 64.0952 81.2075 64.0952 78.4575C65.3898 78.4575 66.7119 78.4575 68.0891 78.4575C68.0891 81.125 68.0891 83.82 68.0891 86.57Z" fill="url(#paint21_linear_154_1494)"></path>
    <path d="M74.2864 86.57C72.9092 86.57 71.6421 86.57 70.2925 86.57C70.2925 83.8475 70.2925 81.2075 70.2925 78.4575C71.5871 78.4575 72.9092 78.4575 74.2864 78.4575C74.2864 81.125 74.2864 83.82 74.2864 86.57Z" fill="url(#paint22_linear_154_1494)"></path>
    <path d="M74.2864 45.32C72.9092 45.32 71.6421 45.32 70.2925 45.32C70.2925 42.5975 70.2925 39.9575 70.2925 37.2075C71.5871 37.2075 72.9092 37.2075 74.2864 37.2075C74.2864 39.875 74.2864 42.57 74.2864 45.32Z" fill="url(#paint23_linear_154_1494)"></path>
    <path d="M51.6729 86.5424C51.6729 83.8199 51.6729 81.1524 51.6729 78.4299C52.995 78.4299 54.2896 78.4299 55.6668 78.4299C55.6668 81.0974 55.6668 83.7924 55.6668 86.5424C54.3997 86.5424 53.0776 86.5424 51.6729 86.5424Z" fill="url(#paint24_linear_154_1494)"></path>
  </g>
  <defs>
    <linearGradient id="paint0_linear_154_1494" x1="47.4861" y1="-0.0280762" x2="47.4861" y2="99.0122" gradientUnits="userSpaceOnUse">
      <stop stop-color="#F49627"></stop>
      <stop offset="1" stop-color="#ED6D2B"></stop>
    </linearGradient>
    <linearGradient id="paint1_linear_154_1494" x1="53.6972" y1="47.4924" x2="53.6972" y2="55.6049" gradientUnits="userSpaceOnUse">
      <stop stop-color="#F49627"></stop>
      <stop offset="1" stop-color="#ED6D2B"></stop>
    </linearGradient>
    <linearGradient id="paint2_linear_154_1494" x1="59.8949" y1="47.52" x2="59.8949" y2="55.6325" gradientUnits="userSpaceOnUse">
      <stop stop-color="#F49627"></stop>
      <stop offset="1" stop-color="#ED6D2B"></stop>
    </linearGradient>
    <linearGradient id="paint3_linear_154_1494" x1="66.0922" y1="47.4924" x2="66.0922" y2="55.6049" gradientUnits="userSpaceOnUse">
      <stop stop-color="#F49627"></stop>
      <stop offset="1" stop-color="#ED6D2B"></stop>
    </linearGradient>
    <linearGradient id="paint4_linear_154_1494" x1="72.2894" y1="47.52" x2="72.2894" y2="55.6325" gradientUnits="userSpaceOnUse">
      <stop stop-color="#F49627"></stop>
      <stop offset="1" stop-color="#ED6D2B"></stop>
    </linearGradient>
    <linearGradient id="paint5_linear_154_1494" x1="53.6972" y1="26.8674" x2="53.6972" y2="34.9799" gradientUnits="userSpaceOnUse">
      <stop stop-color="#F49627"></stop>
      <stop offset="1" stop-color="#ED6D2B"></stop>
    </linearGradient>
    <linearGradient id="paint6_linear_154_1494" x1="59.9085" y1="26.8674" x2="59.9085" y2="35.0349" gradientUnits="userSpaceOnUse">
      <stop stop-color="#F49627"></stop>
      <stop offset="1" stop-color="#ED6D2B"></stop>
    </linearGradient>
    <linearGradient id="paint7_linear_154_1494" x1="53.6695" y1="57.8325" x2="53.6695" y2="65.945" gradientUnits="userSpaceOnUse">
      <stop stop-color="#F49627"></stop>
      <stop offset="1" stop-color="#ED6D2B"></stop>
    </linearGradient>
    <linearGradient id="paint8_linear_154_1494" x1="59.8946" y1="57.8325" x2="59.8946" y2="65.9175" gradientUnits="userSpaceOnUse">
      <stop stop-color="#F49627"></stop>
      <stop offset="1" stop-color="#ED6D2B"></stop>
    </linearGradient>
    <linearGradient id="paint9_linear_154_1494" x1="66.0922" y1="57.8049" x2="66.0922" y2="65.9174" gradientUnits="userSpaceOnUse">
      <stop stop-color="#F49627"></stop>
      <stop offset="1" stop-color="#ED6D2B"></stop>
    </linearGradient>
    <linearGradient id="paint10_linear_154_1494" x1="72.2894" y1="57.8049" x2="72.2894" y2="65.9174" gradientUnits="userSpaceOnUse">
      <stop stop-color="#F49627"></stop>
      <stop offset="1" stop-color="#ED6D2B"></stop>
    </linearGradient>
    <linearGradient id="paint11_linear_154_1494" x1="66.1197" y1="26.895" x2="66.1197" y2="34.98" gradientUnits="userSpaceOnUse">
      <stop stop-color="#F49627"></stop>
      <stop offset="1" stop-color="#ED6D2B"></stop>
    </linearGradient>
    <linearGradient id="paint12_linear_154_1494" x1="72.3035" y1="26.8674" x2="72.3035" y2="35.0349" gradientUnits="userSpaceOnUse">
      <stop stop-color="#F49627"></stop>
      <stop offset="1" stop-color="#ED6D2B"></stop>
    </linearGradient>
    <linearGradient id="paint13_linear_154_1494" x1="53.7109" y1="68.1174" x2="53.7109" y2="76.2299" gradientUnits="userSpaceOnUse">
      <stop stop-color="#F49627"></stop>
      <stop offset="1" stop-color="#ED6D2B"></stop>
    </linearGradient>
    <linearGradient id="paint14_linear_154_1494" x1="53.6972" y1="37.2075" x2="53.6972" y2="45.32" gradientUnits="userSpaceOnUse">
      <stop stop-color="#F49627"></stop>
      <stop offset="1" stop-color="#ED6D2B"></stop>
    </linearGradient>
    <linearGradient id="paint15_linear_154_1494" x1="66.1195" y1="68.145" x2="66.1195" y2="76.2575" gradientUnits="userSpaceOnUse">
      <stop stop-color="#F49627"></stop>
      <stop offset="1" stop-color="#ED6D2B"></stop>
    </linearGradient>
    <linearGradient id="paint16_linear_154_1494" x1="72.2894" y1="68.145" x2="72.2894" y2="76.2575" gradientUnits="userSpaceOnUse">
      <stop stop-color="#F49627"></stop>
      <stop offset="1" stop-color="#ED6D2B"></stop>
    </linearGradient>
    <linearGradient id="paint17_linear_154_1494" x1="59.9085" y1="37.1799" x2="59.9085" y2="45.3474" gradientUnits="userSpaceOnUse">
      <stop stop-color="#F49627"></stop>
      <stop offset="1" stop-color="#ED6D2B"></stop>
    </linearGradient>
    <linearGradient id="paint18_linear_154_1494" x1="66.0922" y1="37.2075" x2="66.0922" y2="45.32" gradientUnits="userSpaceOnUse">
      <stop stop-color="#F49627"></stop>
      <stop offset="1" stop-color="#ED6D2B"></stop>
    </linearGradient>
    <linearGradient id="paint19_linear_154_1494" x1="59.8949" y1="68.1174" x2="59.8949" y2="76.2299" gradientUnits="userSpaceOnUse">
      <stop stop-color="#F49627"></stop>
      <stop offset="1" stop-color="#ED6D2B"></stop>
    </linearGradient>
    <linearGradient id="paint20_linear_154_1494" x1="59.8949" y1="78.4299" x2="59.8949" y2="86.5424" gradientUnits="userSpaceOnUse">
      <stop stop-color="#F49627"></stop>
      <stop offset="1" stop-color="#ED6D2B"></stop>
    </linearGradient>
    <linearGradient id="paint21_linear_154_1494" x1="66.0922" y1="78.4575" x2="66.0922" y2="86.57" gradientUnits="userSpaceOnUse">
      <stop stop-color="#F49627"></stop>
      <stop offset="1" stop-color="#ED6D2B"></stop>
    </linearGradient>
    <linearGradient id="paint22_linear_154_1494" x1="72.2894" y1="78.4575" x2="72.2894" y2="86.57" gradientUnits="userSpaceOnUse">
      <stop stop-color="#F49627"></stop>
      <stop offset="1" stop-color="#ED6D2B"></stop>
    </linearGradient>
    <linearGradient id="paint23_linear_154_1494" x1="72.2894" y1="37.2075" x2="72.2894" y2="45.32" gradientUnits="userSpaceOnUse">
      <stop stop-color="#F49627"></stop>
      <stop offset="1" stop-color="#ED6D2B"></stop>
    </linearGradient>
    <linearGradient id="paint24_linear_154_1494" x1="53.6698" y1="78.4299" x2="53.6698" y2="86.5424" gradientUnits="userSpaceOnUse">
      <stop stop-color="#F49627"></stop>
      <stop offset="1" stop-color="#ED6D2B"></stop>
    </linearGradient>
    <clipPath id="clip0_154_1494">
      <rect width="95" height="99" fill="white"></rect>
    </clipPath>
  </defs>
</svg>
