<svg xmlns="http://www.w3.org/2000/svg" width="500" height="161.86" viewBox="0 0 500 161.86"><path d="M32.2,161.86H28.39a52.35,52.35,0,0,1-8-.84,46.68,46.68,0,0,1-7.2-2.12,30,30,0,0,1-5.94-4.24A19,19,0,0,1,3,148.73a20.07,20.07,0,0,1-2.12-7.2A46.17,46.17,0,0,1,0,133.9V28.39a46.23,46.23,0,0,1,.85-8A45.59,45.59,0,0,1,3,13.14,30.37,30.37,0,0,1,7.2,7.2,19.11,19.11,0,0,1,13.14,3c2.11-1.28,4.66-1.7,7.2-2.12A46.23,46.23,0,0,1,28.39,0H471.61a57.07,57.07,0,0,1,8.05.85A45.59,45.59,0,0,1,486.86,3,23.46,23.46,0,0,1,497,13.14a20.56,20.56,0,0,1,2.12,6.78,51,51,0,0,1,.85,8v105.5a57,57,0,0,1-.85,8.06,45.59,45.59,0,0,1-2.12,7.2,30,30,0,0,1-4.23,5.93,19.14,19.14,0,0,1-5.94,4.24,14.27,14.27,0,0,1-7.2,2.12,47.25,47.25,0,0,1-8.05.84H32.2Z"/><path d="M101.27,82.2a20.78,20.78,0,0,1,10.17-17.79,22.31,22.31,0,0,0-17-9.33c-7.2-.84-14,4.24-17.8,4.24s-9.32-4.24-15.25-4.24A23.07,23.07,0,0,0,42.37,66.53c-8,14-2.12,35.16,5.94,46.61,3.81,5.5,8.47,11.86,14.4,11.86,5.93-.42,8.05-3.81,15.26-3.81S86.86,125,93.22,125s10.17-5.51,14-11.44a37.73,37.73,0,0,0,6.36-13.14C105.93,97.88,101.27,90.25,101.27,82.2Z" fill="#fff"/><path d="M89.83,47.88a20.77,20.77,0,0,0,4.66-14.83,22.44,22.44,0,0,0-13.56,7.2,19.21,19.21,0,0,0-4.66,14.41A17.68,17.68,0,0,0,89.83,47.88Z" fill="#fff"/><path d="M175.42,111.44H155.51l-4.66,14.41h-8.48l18.65-53h8.9L189,125.42h-8.47Zm-17.79-6.78h16.1L166.1,81.78h-.85Z" fill="#fff"/><path d="M230.08,106.36c0,11.86-6.35,19.49-16.1,19.49a12.31,12.31,0,0,1-11.86-6.78h0v19.07h-8.05V87.29h7.62v6.35h0A14.25,14.25,0,0,1,214,86.86C223.73,86.86,230.08,94.49,230.08,106.36Zm-8.05,0c0-7.63-3.81-12.72-10.17-12.72-5.93,0-10.17,5.09-10.17,12.72s4.24,12.71,10.17,12.71S222,114,222,106.36Z" fill="#fff"/><path d="M272.46,106.36c0,11.86-6.36,19.49-16.1,19.49a12.32,12.32,0,0,1-11.87-6.78h0v19.07h-8.05V87.29h7.63v6.35h0a14.23,14.23,0,0,1,12.29-6.78C265.68,86.86,272.46,94.49,272.46,106.36Zm-8.48,0c0-7.63-3.81-12.72-10.17-12.72-5.93,0-10.17,5.09-10.17,12.72s4.24,12.71,10.17,12.71c6.36,0,10.17-5.09,10.17-12.71Z" fill="#fff"/><path d="M300,111c.42,5.08,5.51,8.47,12.71,8.47,6.78,0,11.44-3.39,11.44-8,0-4.24-3-6.36-9.74-8l-6.78-1.7c-9.75-2.54-14-6.77-14-14,0-8.9,8.05-15.25,19.07-15.25s18.65,6.35,19.07,15.25h-8c-.42-5.08-4.66-8.47-11-8.47s-10.59,3.39-10.59,8.05c0,3.81,3,5.93,9.74,7.63l5.94,1.27c10.59,2.54,15.25,6.78,15.25,14.4,0,9.75-8.05,16.1-20.34,16.1-11.86,0-19.49-5.93-19.91-15.67Z" fill="#fff"/><path d="M349.58,78v8.89h7.2v6.36h-7.2v21.19c0,3.39,1.27,4.66,4.66,4.66h2.54v6.35a14.23,14.23,0,0,1-4.24.43c-7.62,0-10.59-3-10.59-10.17V93.22h-5.51V86.86H342V78Z" fill="#fff"/><path d="M361,106.36c0-11.87,7.2-19.5,18.22-19.5s18.22,7.63,18.22,19.5c0,12.28-7.21,19.49-18.22,19.49S361,118.64,361,106.36Zm28.39,0c0-8.48-3.82-13.14-10.17-13.14s-10.17,5.09-10.17,13.14c0,8.47,3.81,13.13,10.17,13.13s10.17-4.66,10.17-13.13Z" fill="#fff"/><path d="M403.81,87.29h7.63v6.35h0a8.78,8.78,0,0,1,9.32-6.78,5.33,5.33,0,0,1,2.55.43v7.2a10.67,10.67,0,0,0-3.39-.42c-4.24,0-8.06,3.39-8.06,7.62v24.16h-8.05Z" fill="#fff"/><path d="M459.75,114.41c-.85,6.78-8.06,11.86-16.53,11.86-11,0-18.22-7.63-18.22-19.49s6.78-19.92,17.8-19.92c10.59,0,17.37,7.21,17.37,19.07v2.54H433.05v.43a10.28,10.28,0,0,0,8.9,11h1.27a8.33,8.33,0,0,0,8.9-5.51ZM433.05,103h19.07c.42-5.09-3.81-9.33-8.9-9.75h-.85a9.79,9.79,0,0,0-9.32,9.75Z" fill="#fff"/><path d="M156.78,33.47a11,11,0,0,1,11.86,10.17v2.12c0,8.05-4.23,12.71-11.86,12.71h-9.32V33.05h9.32Zm-5.51,21.61h4.66c4.24.43,8-3,8.48-7.62v-1.7c.42-4.23-2.55-8.47-6.78-8.9h-6.36Z" fill="#fff"/><path d="M172.88,49.15a8.94,8.94,0,0,1,17.8-1.69v1.69a8.74,8.74,0,0,1-8.05,9.75,9,9,0,0,1-9.75-8Zm14,0q0-6.34-5.08-6.35c-3.39,0-5.09,2.54-5.09,6.35,0,4.24,1.7,6.78,5.09,6.78,3.39-.42,5.08-3,5.08-6.78Z" fill="#fff"/><path d="M214.83,58.47H211l-3.82-14h-.42l-3.81,14h-3.82l-5.08-19.06h3.81l3.39,14.4h.42l3.82-14.4h3.81l3.82,14.4h.42l2.54-14.4h3.82Z" fill="#fff"/><path d="M224.58,39.41h3.81v3h.42A6.11,6.11,0,0,1,234.32,39c3.39-.42,6.36,2.12,6.78,5.94V58.47h-3.81V47c0-3-1.27-4.66-4.24-4.66a4.36,4.36,0,0,0-4.66,4.24V58.47h-3.81Z" fill="#fff"/><path d="M246.61,32.2h3.81V58.9h-3.81Z" fill="#fff"/><path d="M255.51,49.15a8.94,8.94,0,0,1,17.8-1.69v1.69a8.94,8.94,0,0,1-17.8,1.7Zm14.41,0q0-6.34-5.09-6.35c-3.39,0-5.08,2.54-5.08,6.35,0,4.24,1.69,6.78,5.08,6.78C267.8,55.51,269.92,53,269.92,49.15Z" fill="#fff"/><path d="M277.54,53c0-3.39,2.54-5.51,7.21-5.51l5.08-.43V45.34c0-2.12-1.27-3-3.81-3-2.12,0-3.39.85-3.82,2.12h-3.81C278.81,41.1,281.78,39,286,39c4.66,0,7.62,2.55,7.62,6.36V58.47h-3.81V55.93h-.42c-1.27,2.12-3.39,3-5.94,3-3,.42-5.93-2.12-6.35-5.09C277.54,53.39,277.54,53.39,277.54,53Zm12.29-1.28V50l-4.66.42c-2.54,0-3.81,1.27-3.81,2.55,0,1.69,1.69,2.54,3.39,2.54,2.54.42,5.08-1.27,5.08-3.82Z" fill="#fff"/><path d="M298.73,49.15c0-5.93,3-9.74,8-9.74a6.76,6.76,0,0,1,5.93,3.39h.43V32.2H317V58.9h-3.81v-3h-.43a6.76,6.76,0,0,1-5.93,3.39C301.69,58.9,298.73,55.08,298.73,49.15Zm3.81,0c0,4.24,2.12,6.36,5.09,6.36s5.08-2.54,5.08-6.36-2.12-6.35-5.08-6.35c-3.39-.43-5.09,2.12-5.09,6.35Z" fill="#fff"/><path d="M332.2,49.15A8.94,8.94,0,0,1,350,47.46v1.69a8.94,8.94,0,0,1-17.8,1.7C331.78,50,331.78,49.58,332.2,49.15Zm14,0q0-6.34-5.09-6.35c-3.39,0-5.08,2.54-5.08,6.35,0,4.24,1.69,6.78,5.08,6.78C344.49,55.51,346.19,53,346.19,49.15Z" fill="#fff"/><path d="M355.08,39.41h3.82v3h.42A6.11,6.11,0,0,1,364.83,39c3.39-.42,6.36,2.12,6.78,5.94V58.47H367.8V47c0-3-1.27-4.66-4.24-4.66a4.36,4.36,0,0,0-4.66,4.24V58.47h-3.82Z" fill="#fff"/><path d="M392.37,34.75v4.66h4.24v3h-4.24v9.75c0,2.12.85,3,2.55,3h1.27v3h-2.12c-4.24,0-5.93-1.27-5.93-5.08V42.37h-2.55v-3h3V34.75Z" fill="#fff"/><path d="M401.69,32.2h3.82V42.37h.42A5.68,5.68,0,0,1,411.86,39a6.85,6.85,0,0,1,6.78,5.94V58.47h-3.81V47c0-3-1.27-4.66-4.24-4.66a4.36,4.36,0,0,0-4.66,4.24V58.47h-3.81Z" fill="#fff"/><path d="M440.25,53.39c-.84,3.39-4.66,5.93-8.47,5.51-4.66,0-8.9-3.82-8.9-8.48V49.15a8.36,8.36,0,0,1,7.63-9.74h1.27c5.51,0,8.47,3.81,8.47,9.74v1.27H426.69c-.42,3,1.7,5.09,4.67,5.51h.42c1.69.43,3.81-.85,4.66-2.12Zm-13.13-5.93h9.74a5,5,0,0,0-4.23-5.09h-.43a4.9,4.9,0,0,0-5.08,5.09Z" fill="#fff"/></svg>