<?xml version="1.0" encoding="UTF-8"?>
<svg xmlns="http://www.w3.org/2000/svg" width="100" height="100" viewBox="0 0 100 100" fill="none">
  <path d="M83.8014 50C84.3688 46.6903 84.5579 43.2861 84.5579 40.3546C84.6525 37.234 84.6525 34.0189 84.6525 30.8983C84.6525 29.1962 84.6525 27.4941 84.6525 25.6974C84.6525 24.279 84.0851 23.4279 82.7612 22.8605C75.1017 19.74 67.4421 16.6194 59.8771 13.4988L50.7991 10H49.7589L42.9504 12.7423C34.818 16.1466 26.4965 19.4563 18.2695 22.8605C16.3783 23.617 16 24.1844 16 26.0757C16 27.5887 16 29.1962 16 30.7092C16 34.1135 16 37.4232 16 40.8274C16.1891 56.5248 22.1466 69.7636 33.9669 80.3546C38.4113 84.3262 43.7069 87.5414 49.7589 90H50.7991C57.7967 87.2577 63.9433 83.286 69.0496 78.1797C76.9929 70.2364 82.0047 60.7801 83.8014 50ZM51.1773 84.3262C50.9882 84.4208 50.7045 84.5154 50.4208 84.5154C50.1371 84.5154 49.7589 84.4208 49.4752 84.3262C34.818 77.4232 25.6454 66.0757 22.1466 50.5674C21.0118 45.6501 21.1064 40.4492 21.2009 37.7069V34.87C21.2009 32.4113 21.2009 30.331 21.2009 28.2506C21.2009 27.7778 21.2955 27.1158 22.1466 26.7376C26.2128 25.13 30.279 23.4279 34.3452 21.8203C39.4515 19.74 44.4634 17.6596 49.5697 15.6738C50.0426 15.4846 50.7045 15.4846 51.1773 15.6738C56 17.6596 60.8227 19.5508 65.6454 21.5366C69.9007 23.2388 74.156 25.0355 78.4114 26.7376C79.1679 27.0213 79.4515 27.4941 79.4515 28.3452C79.4515 30.331 79.4515 32.3168 79.4515 34.3026C79.4515 36.7612 79.4515 39.2199 79.4515 41.6785C79.2624 60.0236 68.1986 76.7612 51.1773 84.3262Z" fill="black"></path>
  <path d="M34.7001 49.6C37.9001 52.8 41.1001 56.1 44.4001 59.3C45.7001 60.5 47.3001 60.5 48.5001 59.3C53.8001 54 59.9001 47.9 66.0001 41.8C66.4001 41.4 66.7001 40.6 66.8001 39.9C67.0001 38.9 66.3001 37.8 65.2001 37.3C64.1001 36.8 62.9001 37 62.0001 37.9C59.3001 40.6 56.6001 43.3 54.0001 45.9L46.4001 53.5L45.9001 52.9C45.8001 52.8 45.7001 52.7 45.6001 52.6C45.5001 52.4 45.4001 52.3 45.2001 52.2L43.9001 50.9C42.2001 49.1 40.4001 47.4 38.6001 45.6C38.0001 45 37.2001 44.7 36.5001 44.7C35.8001 44.7 35.1001 45 34.6001 45.5C33.4001 46.7 33.5001 48.4 34.7001 49.6Z" fill="#ED6D2B"></path>
</svg>
