<?xml version="1.0" encoding="UTF-8"?>
<svg xmlns="http://www.w3.org/2000/svg" width="100" height="100" viewBox="0 0 100 100" fill="none">
  <path d="M57.3041 60.5653C55.2041 66.9653 55.6041 73.4653 56.3041 78.3653C56.7041 80.9653 57.2041 83.6653 57.8041 86.2653C58.0041 87.2653 58.2041 88.3653 58.4041 89.3653C58.9041 89.1653 59.5041 89.0653 60.0041 88.8653C61.3041 88.4653 62.7041 88.0653 64.0041 87.5653C70.7041 85.1653 75.9041 82.5653 80.3041 79.1653C85.1041 75.4653 88.2041 70.4653 89.3041 64.4653C89.4041 64.1653 89.4041 63.8653 89.5041 63.5653L89.6041 63.0653V60.7653C89.6041 60.6653 89.5041 60.4653 89.5041 60.3653C89.3041 58.0653 88.4041 55.8653 87.1041 53.9653C85.5041 51.6653 83.3041 49.9653 80.5041 48.5653C79.9041 48.2653 79.4041 47.8653 79.3041 46.9653C79.2041 46.0653 79.0041 45.0653 78.6041 43.8653C78.0041 41.7653 77.1041 39.7653 75.9041 37.9653L72.9041 39.9653C74.2041 42.1653 75.1041 44.1653 75.5041 46.2653L75.6041 46.8653L74.1041 46.9653C73.8041 46.9653 73.6041 46.9653 73.3041 46.9653C70.8041 46.9653 68.5041 47.5653 66.5041 48.8653C62.1041 51.4653 59.0041 55.4653 57.3041 60.5653ZM74.6041 50.6653C74.7041 50.6653 74.9041 50.6653 75.1041 50.7653L75.8041 50.8653V51.2653C75.8041 52.8653 75.6041 54.4653 75.0041 55.9653C74.4041 57.4653 73.8041 58.9653 73.0041 60.3653C72.3041 61.6653 71.6041 62.9653 70.8041 64.2653C70.5041 64.6653 70.3041 65.1653 70.0041 65.5653L73.2041 67.3653C73.6041 66.6653 74.0041 65.9653 74.4041 65.3653C76.7041 61.3653 79.0041 57.6653 79.3041 52.9653L79.4041 52.1653L80.1041 52.5653C83.2041 54.4653 84.9041 56.7653 85.6041 59.5653C86.4041 62.7653 85.5041 65.7653 84.6041 67.9653C83.3041 71.2653 81.2041 73.9653 78.5041 76.1653C73.1041 80.3653 67.0041 82.7653 61.7041 84.6653L61.0041 84.8653L60.7041 83.0653C60.5041 82.1653 60.4041 81.2653 60.2041 80.4653C59.5041 76.0653 59.3041 72.0653 59.5041 68.2653C59.8041 62.5653 61.8041 57.9653 65.5041 54.2653C68.2041 51.3653 71.2041 50.2653 74.6041 50.6653Z" fill="black"></path>
  <path d="M31.2039 33.8653C31.3039 33.9653 31.3039 34.0653 31.3039 34.0653C33.2039 37.8653 36.2039 40.2653 40.6039 41.5653C46.5039 43.2653 52.5039 42.6653 58.4039 39.7653C64.6039 36.7653 70.4039 32.4653 76.1039 26.7653C71.8039 22.1653 64.2039 16.4653 58.5039 13.7653C52.9039 11.0653 47.5039 10.3653 42.0039 11.5653C33.7039 13.4653 29.2039 19.6653 29.9039 28.2653C30.0039 28.9653 29.8039 29.3653 29.2039 29.7653C26.7039 31.6653 24.7039 34.0653 23.3039 36.7653C22.8039 37.6653 22.4039 38.6653 21.9039 39.7653C21.8039 40.0653 21.6039 40.3653 21.5039 40.6653L25.1039 41.7653C27.3039 37.0653 28.8039 34.8653 30.5039 33.6653L30.9039 33.3653L31.2039 33.8653ZM33.5039 26.3653C33.5039 21.1653 36.1039 17.3653 40.7039 15.7653C45.8039 13.9653 51.0039 14.2653 56.2039 16.7653C60.8039 18.9653 65.2039 21.9653 70.1039 26.1653C70.2039 26.2653 70.2039 26.2653 70.3039 26.3653L70.8039 26.9653L70.4039 27.2653C69.9039 27.6653 69.3039 28.1653 68.8039 28.5653C67.7039 29.4653 66.5039 30.4653 65.3039 31.3653C62.2039 33.6653 58.0039 36.5653 53.0039 38.0653C51.1039 38.6653 49.2039 38.9653 47.3039 38.9653C44.6039 38.9653 42.0039 38.3653 39.4039 37.1653C36.9039 36.0653 35.1039 33.9653 34.3039 31.3653L34.1039 30.9653L34.5039 30.7653C37.0039 29.4653 39.6039 28.7653 42.2039 28.6653C44.0039 28.5653 45.9039 28.6653 47.7039 28.6653C48.3039 28.6653 49.0039 28.6653 49.7039 28.6653V24.9653C48.9039 24.9653 48.0039 24.9653 47.2039 24.9653C42.7039 24.8653 38.4039 24.8653 34.2039 26.8653L33.5039 27.1653V26.3653Z" fill="black"></path>
  <path d="M34.9041 54.0653C30.3041 50.7653 25.1041 48.1653 18.3041 45.8653C17.1041 45.4653 16.0041 45.1653 14.8041 44.7653C14.4041 44.6653 14.0041 44.5653 13.6041 44.4653C11.3041 53.0653 10.6041 60.3653 11.2041 67.4653C11.8041 73.6653 14.3041 78.8653 18.8041 82.9653C22.1041 85.9653 25.8041 87.3653 30.0041 86.8653C32.7041 86.5653 35.3041 85.5653 38.0041 83.7653C38.4041 83.4653 39.0041 83.3653 39.4041 83.5653C40.2041 83.7653 41.0041 83.9653 41.7041 84.1653C42.9041 84.4653 44.2041 84.8653 45.4041 85.0653C46.3041 85.2653 47.2041 85.2653 48.1041 85.2653C48.4041 85.2653 48.6041 85.2653 48.9041 85.2653L48.7041 81.5653C46.2041 81.5653 44.2041 81.2653 42.3041 80.6653L41.7041 80.4653L42.1041 79.7653C42.2041 79.6653 42.2041 79.5653 42.2041 79.5653C44.4041 76.3653 45.0041 72.6653 44.2041 68.6653C43.1041 62.6653 39.9041 57.7653 34.9041 54.0653ZM38.5041 78.4653L38.2041 78.7653L37.8041 78.5653C33.8041 76.2653 31.7041 72.5653 29.7041 68.9653C29.2041 68.1653 28.7041 67.2653 28.2041 66.4653L25.1041 68.2653C25.5041 68.9653 25.9041 69.5653 26.2041 70.2653C28.5041 74.2653 30.6041 78.0653 34.4041 80.7653L35.0041 81.1653L34.4041 81.5653C32.6041 82.7653 30.5041 83.2653 28.5041 83.2653C26.6041 83.2653 24.6041 82.7653 23.0041 81.6653C19.3041 79.0653 16.8041 75.4653 15.6041 70.9653C15.1041 68.9653 14.9041 66.8653 14.7041 64.8653C14.4041 61.0653 15.1041 53.6653 16.2041 49.4653L16.3041 48.9653L16.8041 49.1653C17.6041 49.4653 18.3041 49.7653 19.1041 50.0653C20.8041 50.7653 22.5041 51.3653 24.1041 52.1653C27.9041 53.8653 32.2041 56.0653 35.6041 59.6653C39.3041 63.4653 41.0041 67.8653 40.9041 72.6653C40.9041 74.6653 40.1041 76.6653 38.5041 78.4653Z" fill="#ED6D2B"></path>
</svg>
