<?xml version="1.0" encoding="UTF-8"?>
<svg xmlns="http://www.w3.org/2000/svg" width="100" height="100" viewBox="0 0 100 100" fill="none">
  <path d="M55.8999 83.0999H88.8999V88.5H55.8999V83.0999ZM55.8999 78.5999H88.8999V73.2H55.8999V78.5999ZM55.8999 63.2V68.5999H88.8999V63.2H55.8999Z" fill="#ED6D2B"></path>
  <path d="M64.3 48.3C64.3 51.4 63.4 54.3 61.8 56.8H55.8C58.2 54.8 59.8 51.7 59.8 48.3C59.8 42.3 55 37.4 49 37.4C43.1 37.4 38.2 42.3 38.2 48.3C38.2 54.3 43 59.2 49 59.2V63.8C40.6 63.8 33.7 56.9 33.7 48.3C33.7 39.8 40.5 32.8 49 32.8C57.5 32.8 64.3 39.8 64.3 48.3ZM49 80.4H41.8L39.7 72L38.7 71.6C37.1 70.8 35.5 69.9 34.1 68.9L33.2 68.2L24.9 70.5L17.6 57.9L23.9 51.6L23.8 50.5C23.7 49.7 23.7 49 23.7 48.3C23.7 47.4 23.8 46.5 23.8 45.5L23.9 44.4L17.5 38L24.7 25.4L33.7 27.9L34.6 27.3C35.8 26.4 37.1 25.7 38.5 25.1L39.5 24.6L41.8 15.5H56.2L58.5 24.6L59.5 25.1C60.8 25.7 62.1 26.5 63.4 27.3L64.3 27.9L73.3 25.4L80.5 38L74.1 44.4L74.2 45.5C74.3 46.4 74.3 47.4 74.3 48.3C74.3 49 74.3 49.7 74.2 50.5L74 51.6L79.2 56.8H85.6L78.6 49.8C78.6 49.3 78.6 48.8 78.6 48.3C78.6 47.6 78.6 46.9 78.5 46.2L85.9 38.8L75.3 20.2L65 23C64.1 22.4 63.2 21.9 62.3 21.4L59.7 11H38.3L35.6 21.5C34.7 22 33.8 22.5 32.9 23.1L22.7 20.2L12 38.8L19.4 46.2C19.3 46.9 19.3 47.6 19.3 48.3C19.3 48.8 19.3 49.3 19.3 49.8L12 57.2L22.7 75.9L32.3 73.2C33.4 74 34.6 74.7 35.9 75.3L38.4 85H49V80.4Z" fill="black"></path>
</svg>
