<?xml version="1.0" encoding="UTF-8"?>
<svg xmlns="http://www.w3.org/2000/svg" width="100" height="100" viewBox="0 0 100 100" fill="none">
  <path d="M83.3345 73.1636C80.7215 73.1636 79.0356 71.4667 79.0356 68.8364C79.0356 66.2061 80.7215 64.5091 83.3345 64.5091C85.9476 64.5091 87.6335 66.2061 87.6335 68.8364C87.7178 71.4667 86.0319 73.1636 83.3345 73.1636ZM80.3 76.0485L77.2655 74.1818C72.0393 80.1212 65.0431 84.2788 57.6253 85.7212V89.5394C66.2231 87.7576 74.0624 83.0909 80.3 76.0485ZM83.3345 26.8364C80.7215 26.8364 79.0356 28.5333 79.0356 31.1636C79.0356 33.7939 80.7215 35.4909 83.3345 35.4909C85.9476 35.4909 87.6335 33.7939 87.6335 31.1636C87.6335 28.5333 86.0319 26.8364 83.3345 26.8364ZM50.039 8C47.4259 8 45.7401 9.69697 45.7401 12.3273C45.7401 14.9576 47.4259 16.6545 50.039 16.6545C52.652 16.6545 54.3379 14.9576 54.3379 12.3273C54.3379 9.69697 52.652 8 50.039 8ZM87.8863 36.9333L84.3461 38.8849C85.5262 42.1939 86.1162 45.8424 86.1162 50C86.1162 53.8182 85.1047 58.0606 84.2618 61.1152L87.8021 63.0667C89.235 58.6545 89.9937 54.1576 89.9937 50C90.0779 45.8424 89.3193 41.3455 87.8863 36.9333ZM57.6253 10.4606V14.2788C65.1273 16.0606 71.7865 19.9636 77.2655 25.8182L80.3843 23.8667C74.7367 17.2485 66.476 12.3273 57.6253 10.4606ZM12.3602 31.1636C12.3602 33.7939 14.046 35.4909 16.6591 35.4909C19.2722 35.4909 20.958 33.7939 20.958 31.1636C20.958 28.5333 19.2722 26.8364 16.6591 26.8364C14.046 26.8364 12.3602 28.5333 12.3602 31.1636ZM16.7434 73.1636C19.3565 73.1636 21.0423 71.4667 21.0423 68.8364C21.0423 66.2061 19.3565 64.5091 16.7434 64.5091C14.1303 64.5091 12.4445 66.2061 12.4445 68.8364C12.3602 71.4667 14.046 73.1636 16.7434 73.1636ZM15.7319 61.1152C14.5518 57.8061 13.9618 54.1576 13.9618 50C13.9618 45.8424 14.5518 42.1939 15.7319 38.8849L12.1916 36.9333C10.7586 41.3455 10 45.8424 10 50C10 54.1576 10.7586 58.6545 12.1916 63.0667L15.7319 61.1152ZM50.039 92C52.652 92 54.3379 90.303 54.3379 87.6727C54.3379 85.0424 52.652 83.3455 50.039 83.3455C47.4259 83.3455 45.7401 85.0424 45.7401 87.6727C45.7401 90.303 47.4259 92 50.039 92ZM42.4526 89.5394V85.7212C34.9506 83.9394 28.2915 80.0364 22.8125 74.1818L19.6936 76.1333C25.3412 82.7515 33.6019 87.6727 42.4526 89.5394ZM19.7779 23.9515L22.8968 25.903C28.1229 20.303 35.1192 16.2303 42.5369 14.3636V10.4606C33.8548 12.2424 26.0156 16.9091 19.7779 23.9515Z" fill="black"></path>
  <path d="M62.7759 47.334C62.4238 46.6213 61.7196 46.1759 60.9274 46.1759H55.1178V34.0614C55.1178 33.1706 54.5897 32.3689 53.7094 32.1016C52.9172 31.8344 51.9489 32.1016 51.4208 32.8143L38.3933 50.5408C37.9532 51.1643 37.8652 51.966 38.2173 52.6786C38.5694 53.3912 39.2735 53.8366 40.0658 53.8366H45.8753V65.9512C45.8753 66.842 46.4035 67.6437 47.2837 67.9109C47.4597 68 47.7238 68 47.8999 68C48.516 68 49.1322 67.7328 49.5723 67.1983L62.6878 49.4718C63.0399 48.8483 63.128 48.0466 62.7759 47.334ZM51.0687 40.2968V48.2247C51.0687 49.3827 51.9489 50.2735 53.0933 50.2735H56.8783L49.9244 59.7158V51.7878C49.9244 50.6298 49.0442 49.7391 47.8999 49.7391H44.0268L51.0687 40.2968Z" fill="#ED6D2B"></path>
</svg>
