<?xml version="1.0" encoding="UTF-8"?>
<svg xmlns="http://www.w3.org/2000/svg" width="100" height="100" viewBox="0 0 100 100" fill="none">
  <path d="M57.3 15.2C54.3 12.8 50.5 11.1 45.9 10.1C44.4 9.8 42.7 9.6 41.2 9.4C40.5 9.3 39.7 9.2 39 9.1C38.9 9.1 38.7 9 38.6 9H38.4H32.7C32.3 9 31.9 9.1 31.5 9.1C30.6 9.2 29.7 9.3 28.8 9.4C22.4 10.4 17.7 12.1 13.9 14.8C11.3 16.6 9.9 18.6 9.3 21.1C9.1 21.8 9 22.6 9 23.3C9 33.5 9 43.7 9 54V66.5C9 69.5 10.4 72.1 13.2 74.4C16.1 76.8 19.6 78.4 24.4 79.5C30.3 80.9 36.5 81.2 42.7 80.2C42.8 80.2 42.9 80.2 43 80.2C43.5 80.2 43.8 80.4 44.1 80.8C48.6 86.2 54.3 89.3 61.1 90.2C74.3 91.9 86.9 83 89.8 70C90 69.1 90.1 68.3 90.3 67.4C90.4 67 90.4 66.6 90.5 66.2V62.4C90.4 61.9 90.3 61.5 90.3 61C90.1 60 90 59 89.8 58C87.3 47.3 77.8 39.2 66.9 38.3C65.9 38.2 64.8 38.2 63.7 38.3C63.2 38.3 62.6 38.3 62.1 38.3H61.8V37.1C61.8 35.8 61.8 34.5 61.8 33.2C61.8 30.3 61.8 27.2 61.8 24.2C61.7 20.6 60.3 17.7 57.3 15.2ZM15.1 19.3C16.8 17.6 19 16.3 22.2 15.3C26.5 13.8 30.8 13.2 36.6 13.2C42.1 13.3 46.9 14.3 51 16.3C52.6 17.1 54.2 18.1 55.4 19.3C56.7 20.5 57.3 21.7 57.4 23C57.4 24.4 56.8 25.7 55.4 27C53.4 28.9 50.8 30.3 47.5 31.3C43.4 32.5 39.3 33.1 35.3 33.1C30.2 33.1 25.3 32.2 20.5 30.3C19.3 29.8 18.2 29.1 17.1 28.4C16.7 28.1 16.2 27.8 15.7 27.5C15.5 27.4 15.3 27.2 15.1 27L15 26.9C13.8 25.7 13.1 24.4 13.2 23.1C13.2 21.8 13.9 20.6 15.1 19.3ZM13.2 37C13.3 35.8 13.3 34.6 13.2 33.3C13.2 32.7 13.2 32.2 13.2 31.6V31L13.7 31.3C19.6 35.3 26.5 37.2 35.3 37.2H35.4C44.2 37.2 51 35.3 56.8 31.4L57.3 31.1V33.1C57.3 34.9 57.3 36.7 57.3 38.5C57.3 38.8 56.9 39.2 56.6 39.3C52.2 40.7 48.4 43.1 45.2 46.4C44.9 46.7 44.5 46.8 44.3 46.9C41.4 47.5 38.5 47.8 35.5 47.8C33.9 47.8 32.4 47.7 30.8 47.6C26.3 47.1 22.8 46.2 19.7 44.7C18.3 44 16.9 43.1 15.4 42C13.8 40.7 13.1 39 13.2 37ZM39.8 76.4C39.2 76.5 38.7 76.5 38.2 76.5C37.2 76.6 36.2 76.6 35.3 76.6C29.6 76.6 24.6 75.6 20.1 73.7C18.3 72.9 16.6 71.7 15.3 70.7C13.8 69.5 13 67.9 13.1 65.9C13.2 64.8 13.1 63.6 13.1 62.4C13.1 61.9 13.1 61.3 13.1 60.8V60.2L13.6 60.5C21.8 66 30.9 66.5 37.9 66.4H38.2V66.7C38.5 70 39.4 73 40.8 75.9L41 76.3L39.8 76.4ZM41.1 52.2C39.5 55.3 38.6 58.5 38.3 61.8V62H38C37.9 62 37.8 62.1 37.7 62.1C36.9 62.1 36.2 62.1 35.5 62.1C28.9 62.1 23.5 60.9 18.6 58.5C16.9 57.6 15.6 56.6 14.5 55.4C13.6 54.3 13.1 53.1 13.2 51.8C13.2 50.6 13.2 49.3 13.2 48C13.2 47.4 13.2 46.9 13.2 46.3V45.7L13.7 46C21 50.8 29.3 52.5 40.9 51.6H41.4L41.1 52.2ZM64.3 42.4C76.4 42.4 86.2 52.3 86.2 64.3C86.2 70.1 83.9 75.7 79.7 79.8C75.6 83.9 70.1 86.2 64.2 86.2C64.2 86.2 64.2 86.2 64.1 86.2C52 86.2 42.2 76.3 42.2 64.3C42.2 58.5 44.5 52.9 48.6 48.8C52.9 44.6 58.4 42.4 64.3 42.4Z" fill="black"></path>
  <path d="M71.2 69.4001C71.3 66.7001 70.2 64.6 67.8 63.1C66.8 62.5 65.7 62.2 64.2 62.1C62.8 62.1 61.7 61 61.6 59.6C61.5 58.3 62.5 57.0001 63.8 56.7001C65.1 56.5001 66.4 57.3 66.9 58.6C66.9 58.7 67 58.9 67 59H71.2C71.2 58.9 71.2 58.7 71.2 58.6C70.8 56 69.5 54.2 67.3 53.1C66.7 52.8 66.5 52.4 66.5 51.8C66.5 50.8 66.5 49.7001 66.5 48.7001V47.8H62.3V48.8C62.3 49.9 62.3 50.9 62.3 52C62.3 52.6 62.1 53 61.5 53.3C59.6 54.2 58.2 55.9 57.7 58C57.2 60 57.7 62.2 59 63.8C60.3 65.5 62.2 66.4 64.5 66.5C66 66.5 67.1 67.6 67.2 69C67.3 70.3 66.3 71.6 64.9 71.8C63.6 72 62.3 71.2 61.9 69.8C61.9 69.7 61.8 69.6001 61.8 69.4001H57.6C57.6 69.6001 57.6 69.7001 57.6 69.9001C58 72.4001 59.3 74.3001 61.6 75.3001C62.2 75.6001 62.4 75.9 62.4 76.5C62.4 77.6 62.4 78.6 62.4 79.7V80.7H66.6V79.7C66.6 78.7 66.6 77.7 66.6 76.7C66.6 76 66.8 75.6001 67.5 75.3001C69.7 74.1001 71 72.1001 71.2 69.4001Z" fill="#ED6D2B"></path>
</svg>
