<?xml version="1.0" encoding="UTF-8"?>
<svg xmlns="http://www.w3.org/2000/svg" width="100" height="100" viewBox="0 0 100 100" fill="none">
  <path d="M90 49.2H85C85 49.5 85 49.7 85 50C85 69.3 69.3 85 50 85C30.7 85 15 69.3 15 50C15 30.7 30.7 15 50 15C54.9 15 59.5 16 63.7 17.8C63.7 17.9 63.7 17.9 63.7 18C63.2 21.8 64.3 24.9 67.4 27.3C69.3 28.8 71.4 30.1 73.4 31.4C74.3 32 75.2 32 76.1 31.5C76.3 31.4 76.7 31.4 76.9 31.5C77.8 32.1 78.6 32.7 79.5 33.3C79.6 33.4 79.6 33.4 79.7 33.4L82.3 29.5C81.3 28.8 80.3 28.1 79.2 27.3C80.3 25.7 81.4 24.1 82.5 22.6C83.5 23.3 84.5 24 85.5 24.6C85.5 24.6 85.6 24.6 85.6 24.7L88.2 20.8L88.1 20.7C87.3 20.1 86.5 19.6 85.7 19.1C85.3 18.9 85.1 18.6 85.2 18.1C85.4 17.2 85 16.4 84.2 15.8C82.2 14.4 80.2 13 78.1 11.6C74.4 9.2 69.6 9.7 66.5 12.8C66.3 13 66.1 13.1 65.9 13.1C60.9 11.2 55.6 10 50 10C27.9 10 10 27.9 10 50C10 72.1 27.9 90 50 90C72.1 90 90 72.1 90 50C90 49.7 90 49.5 90 49.2ZM69.4 16.7C70.9 14.8 73.5 14.3 75.5 15.6C76.9 16.5 78.2 17.4 79.7 18.4C77.9 21 76.1 23.6 74.3 26.3C72.7 25.2 71.1 24.1 69.7 22.9C67.8 21.4 67.9 18.6 69.4 16.7Z" fill="black"></path>
  <path d="M33.7002 35.5H47.8002V40.1H40.2002V48.7H46.0002V53.3H40.2002V63.5H47.8002V68H33.7002V35.5ZM49.7002 35.5H55.4002L59.2002 57.9L62.8002 35.5H68.8002L62.6002 67.9H55.8002L49.7002 35.5Z" fill="#ED6D2B"></path>
</svg>
